<svg width="18" height="18" viewBox="0 0 18 18" fill="none" xmlns="http://www.w3.org/2000/svg">
<path fill-rule="evenodd" clip-rule="evenodd" d="M3.70536 5.62549C4.9939 6.39897 7.13806 6.78571 9.25 6.78571C11.3619 6.78571 13.5061 6.38285 14.7946 5.60776V7.3482C14.7946 8.03124 12.5848 9.0357 9.25 9.0357C5.91518 9.0357 3.70536 8.03124 3.70536 7.3482V5.62549ZM2.5 3.89191C2.5 3.89223 2.5 3.89254 2.5 3.89285V3.89286V7.3482V10.7634V14.1786C2.5 16.067 5.91518 17.0714 9.25 17.0714C12.5848 17.0714 16 16.1071 16 14.1786V10.7634V7.3482V3.89286C16 2.00446 12.5848 1 9.25 1C5.91572 1 2.50111 1.96397 2.5 3.89191ZM14.7946 9.06311C13.5061 9.8382 11.3619 10.2411 9.25 10.2411C7.13806 10.2411 4.9939 9.8382 3.70536 9.06311V10.7634C3.70536 11.4464 5.91518 12.4509 9.25 12.4509C12.5848 12.4509 14.7946 11.4464 14.7946 10.7634V9.06311ZM14.7946 12.4783C13.5061 13.2534 11.3619 13.6562 9.25 13.6562C7.13806 13.6562 4.9939 13.2534 3.70536 12.4783V14.1786C3.70536 14.8616 5.91518 15.8661 9.25 15.8661C12.5848 15.8661 14.7946 14.8616 14.7946 14.1786V12.4783ZM3.70536 3.89286C3.70536 3.20982 5.91518 2.20536 9.25 2.20536C12.5848 2.20536 14.7946 3.20982 14.7946 3.89286C14.7946 4.57589 12.5848 5.58035 9.25 5.58035C5.91518 5.58035 3.70536 4.57589 3.70536 3.89286Z" fill="white"/>
</svg>
