<svg width="40" height="41" viewBox="0 0 40 41" fill="none" xmlns="http://www.w3.org/2000/svg">
<path d="M25.7297 2.99756H10.5219C7.4727 2.99756 5.00122 5.46943 5.00122 8.51826V32.4616C5.00122 35.5108 7.4731 37.9823 10.5219 37.9823H29.4864C32.5356 37.9823 35.0071 35.5104 35.0071 32.4616V12.2745C35.0071 11.0312 34.5133 9.83896 33.634 8.96006L29.0442 4.37021C28.1651 3.4913 26.9729 2.99755 25.7297 2.99756Z" fill="#53D39C"/>
<path d="M25.6052 15.6877C25.2392 15.3217 24.6454 15.3217 24.2794 15.6877L19.9532 20.0139L15.6271 15.6877C15.261 15.3217 14.6673 15.3217 14.3013 15.6877C13.9353 16.0537 13.9353 16.6475 14.3013 17.0135L18.6274 21.3396L14.3009 25.6658C13.9349 26.0318 13.9349 26.6256 14.3009 26.9916C14.4841 27.1748 14.7239 27.2662 14.9638 27.2662C15.2036 27.2662 15.4435 27.1748 15.6267 26.9916L19.9532 22.6654L24.279 26.9916C24.4622 27.1748 24.7021 27.2662 24.9419 27.2662C25.1817 27.2662 25.4216 27.1748 25.6048 26.9916C25.9708 26.6256 25.9708 26.0318 25.6048 25.6658L21.279 21.3396L25.6052 17.0135C25.9712 16.6475 25.9712 16.0537 25.6052 15.6877ZM33.6341 8.95996L29.0442 4.37012C28.3857 3.71164 27.546 3.26423 26.6321 3.08496V8.23652C26.6321 9.87207 27.9579 11.1979 29.5935 11.1979H34.8813C34.6814 10.3506 34.2495 9.5757 33.6341 8.95996Z" fill="#25BF79"/>
<path d="M21.279 20.871L25.6052 16.5449C25.9712 16.1789 25.9712 15.5851 25.6052 15.2191C25.2392 14.8531 24.6454 14.8531 24.2794 15.2191L19.9532 19.5453L15.6271 15.2191C15.261 14.8531 14.6673 14.8531 14.3013 15.2191C13.9353 15.5851 13.9353 16.1789 14.3013 16.5449L18.6274 20.871L14.3009 25.1972C13.9349 25.5632 13.9349 26.157 14.3009 26.523C14.4841 26.7062 14.7239 26.7976 14.9638 26.7976C15.2036 26.7976 15.4435 26.7062 15.6267 26.523L19.9532 22.1968L24.279 26.523C24.4622 26.7062 24.7021 26.7976 24.9419 26.7976C25.1817 26.7976 25.4216 26.7062 25.6048 26.523C25.9708 26.157 25.9708 25.5632 25.6048 25.1972L21.279 20.871Z" fill="white"/>
</svg>
