<svg width="18" height="18" viewBox="0 0 18 18" fill="none" xmlns="http://www.w3.org/2000/svg">
<path d="M4.21165 4.81866C3.92653 4.82241 3.69843 5.07002 3.70144 5.37165C3.69843 5.67365 3.92653 5.92088 4.21165 5.92501H10.3305C10.6156 5.92125 10.8437 5.67365 10.8407 5.37165C10.8437 5.07002 10.6156 4.82241 10.3305 4.81866H4.21165ZM7.27145 8.13732H4.21165C3.92653 8.14107 3.69843 8.38868 3.70144 8.69031C3.69843 8.99193 3.92653 9.23954 4.21165 9.24329H7.27145C7.55657 9.23954 7.78467 8.99193 7.78167 8.69031C7.78406 8.5468 7.73159 8.40779 7.63498 8.30164C7.58881 8.25089 7.53273 8.21014 7.47021 8.18188C7.40769 8.15362 7.34005 8.13845 7.27145 8.13732ZM8.12907 14.775C8.41156 14.775 8.63928 15.0222 8.63928 15.3284C8.64228 15.63 8.41419 15.8776 8.12907 15.8814H3.53974C2.41426 15.8814 1.5 14.8898 1.5 13.669V3.71232C1.5 2.49155 2.41389 1.5 3.53974 1.5H12.718C13.8431 1.5 14.7574 2.49155 14.7574 3.71232V6.47799C14.7604 6.77962 14.5323 7.02722 14.2472 7.03098C13.9624 7.02685 13.7347 6.77962 13.7381 6.47799V3.71232C13.7381 3.10118 13.2823 2.60635 12.718 2.60635H3.53974C2.97588 2.60635 2.51968 3.10043 2.51968 3.71232V13.669C2.51968 14.2806 2.97588 14.775 3.54012 14.775H8.12907ZM12.2191 16.4962C11.0827 16.4955 9.99361 16.0172 9.19077 15.1659C8.38793 14.3151 7.93736 13.1611 7.93811 11.9583C7.93736 10.7559 8.3883 9.60232 9.19114 8.75183C9.99398 7.90097 11.0831 7.42264 12.2187 7.42189C13.355 7.42264 14.4441 7.90097 15.247 8.75183C16.0498 9.60232 16.5004 10.7559 16.5 11.9587C16.5007 13.1611 16.0498 14.3147 15.247 15.1663C14.4441 16.0172 13.355 16.4955 12.2191 16.4962ZM12.2191 15.6071C13.1318 15.6056 14.0067 15.2207 14.6512 14.536C15.2957 13.8521 15.6566 12.9247 15.6555 11.9587C15.6578 9.94671 14.1192 8.31402 12.2191 8.31102C10.3185 8.31402 8.77997 9.94671 8.78259 11.9587C8.78109 12.9247 9.14237 13.8521 9.7869 14.536C10.4314 15.2203 11.3063 15.6052 12.2191 15.6071ZM11.8548 13.5869V10.3583C11.8548 10.1264 12.0881 9.99061 12.2581 10.1245L14.3057 11.7389C14.374 11.7951 14.4141 11.8814 14.4141 11.973C14.4144 12.0176 14.4048 12.0618 14.386 12.1024C14.3672 12.1429 14.3396 12.1788 14.3053 12.2074L12.2581 13.8217C12.0892 13.9557 11.8548 13.8199 11.8548 13.588V13.5869ZM10.8313 10.3583C10.8313 10.1996 10.9458 10.0716 11.0872 10.0716C11.229 10.0716 11.3431 10.1996 11.3431 10.3583V13.6874C11.3431 13.8461 11.2283 13.9741 11.0872 13.9741C11.0522 13.9728 11.0179 13.9645 10.9863 13.9495C10.9547 13.9345 10.9265 13.9133 10.9034 13.887C10.8548 13.8321 10.8291 13.7607 10.8313 13.6874V10.3583Z" fill="white"/>
</svg>
