<svg width="18" height="18" viewBox="0 0 18 18" fill="none" xmlns="http://www.w3.org/2000/svg">
<path d="M16.4573 2.32174L15.6778 1.54228C15.6484 1.51287 15.6116 1.5 15.573 1.5C15.5344 1.5 15.4976 1.51471 15.4682 1.54228L14.0692 2.94127C13.4611 2.52921 12.7431 2.30951 12.0085 2.31071C11.0672 2.31071 10.126 2.66919 9.40719 3.38799L7.53391 5.26126C7.50654 5.28891 7.49118 5.32623 7.49118 5.36513C7.49118 5.40403 7.50654 5.44136 7.53391 5.469L12.5287 10.4638C12.5581 10.4932 12.5949 10.5061 12.6335 10.5061C12.6703 10.5061 12.7089 10.4914 12.7383 10.4638L14.6116 8.59052C15.8782 7.32205 16.0271 5.36054 15.0583 3.9303L16.4573 2.53131C16.5142 2.47249 16.5142 2.37873 16.4573 2.32174ZM13.7255 7.70627L12.6335 8.79825L9.19945 5.36421L10.2914 4.27223C10.7492 3.81448 11.3595 3.56079 12.0085 3.56079C12.6574 3.56079 13.2659 3.81264 13.7255 4.27223C14.1832 4.72998 14.4369 5.34031 14.4369 5.98925C14.4369 6.63819 14.1832 7.24668 13.7255 7.70627ZM10.2289 9.63654C10.2013 9.60917 10.164 9.59381 10.1251 9.59381C10.0862 9.59381 10.0488 9.60917 10.0212 9.63654L8.79685 10.8609L7.13682 9.20085L8.363 7.97467C8.41999 7.91768 8.41999 7.82392 8.363 7.76694L7.69384 7.09778C7.6662 7.07041 7.62888 7.05505 7.58998 7.05505C7.55108 7.05505 7.51375 7.07041 7.48611 7.09778L6.25993 8.32396L5.46944 7.53346C5.45572 7.51973 5.43936 7.50891 5.42136 7.50164C5.40335 7.49438 5.38407 7.49082 5.36465 7.49118C5.32789 7.49118 5.28928 7.50589 5.25987 7.53346L3.38843 9.40674C2.1218 10.6752 1.9729 12.6367 2.94171 14.067L1.54272 15.4659C1.51535 15.4936 1.5 15.5309 1.5 15.5698C1.5 15.6087 1.51535 15.646 1.54272 15.6737L2.32218 16.4531C2.3516 16.4826 2.38836 16.4954 2.42697 16.4954C2.46558 16.4954 2.50234 16.4807 2.53176 16.4531L3.93074 15.0542C4.55026 15.4751 5.2709 15.6847 5.99153 15.6847C6.93277 15.6847 7.874 15.3262 8.5928 14.6074L10.4661 12.7342C10.5231 12.6772 10.5231 12.5834 10.4661 12.5264L9.67558 11.7359L10.9018 10.5098C10.9588 10.4528 10.9588 10.359 10.9018 10.302L10.2289 9.63654ZM7.70671 13.725C7.48171 13.9512 7.21413 14.1305 6.91941 14.2526C6.6247 14.3747 6.3087 14.4372 5.98969 14.4365C5.34075 14.4365 4.73226 14.1846 4.27267 13.725C4.04652 13.5 3.86721 13.2324 3.74509 12.9377C3.62298 12.643 3.56049 12.327 3.56123 12.008C3.56123 11.3591 3.81309 10.7506 4.27267 10.291L5.36465 9.19901L8.79869 12.633L7.70671 13.725Z" fill="white"/>
</svg>
