<svg width="18" height="18" viewBox="0 0 18 18" fill="none" xmlns="http://www.w3.org/2000/svg">
<path fill-rule="evenodd" clip-rule="evenodd" d="M2 16.5V2H16.5V16.5H2ZM3.20833 15.2917H15.2917V3.20833H3.20833V15.2917ZM8.49178 4.68249L9.34668 5.53739L6.59168 8.29239L4.59491 6.29562L5.44678 5.44072L6.59168 6.5826L8.49178 4.68249ZM11.7694 11.5549L12.6636 10.6577L13.5184 11.5126L12.6243 12.4068L13.5758 13.3613L12.721 14.2162L11.7694 13.2617L10.7967 14.2344L9.9448 13.3795L10.9145 12.4068L9.99918 11.4945L10.8541 10.6396L11.7694 11.5549ZM12.4494 5.19785L5.19938 12.4475L6.05367 13.3021L13.3037 6.05244L12.4494 5.19785Z" fill="white"/>
</svg>
