<svg width="31" height="32" viewBox="0 0 31 32" fill="none" xmlns="http://www.w3.org/2000/svg">
<path fill-rule="evenodd" clip-rule="evenodd" d="M9.40288 16.1956L10.314 9.35054H5.0465L3.85812 18.9467C4.84541 20.5453 6.10496 21.9587 7.57972 23.1228C7.74906 23.2625 7.93425 23.4061 8.14717 23.5605H8.15311C8.21748 23.6101 8.28383 23.6596 8.35117 23.7051L15.9657 13.398L15.7141 21.3977H22.2829L30.2173 9.35054H24.9459L20.3954 16.1956L21.3055 0L9.40288 16.1956ZM10.824 3.99889C11.8242 3.99553 12.8219 4.0971 13.8009 4.30193C13.8796 4.31836 13.957 4.3329 14.0329 4.34714C14.1764 4.37409 14.3143 4.39998 14.4446 4.43562L15.0041 4.58912L15.4834 4.72281L15.8746 4.85948L16.5866 5.11201L15.8459 4.96445L15.4448 4.88126L14.9566 4.81194C14.9052 4.80485 14.8527 4.79744 14.7991 4.78987L14.799 4.78985C14.4862 4.74567 14.1364 4.69627 13.7484 4.67429C13.3523 4.63468 12.9155 4.61289 12.4461 4.61289C11.7959 4.61434 11.1463 4.6517 10.5002 4.72479C9.12813 4.88104 7.79042 5.25827 6.53891 5.84187L6.28341 5.96071C6.22974 5.98722 6.17809 6.01777 6.12614 6.04848C6.0966 6.06595 6.06697 6.08347 6.03682 6.10034L5.54166 6.38852C5.43598 6.4518 5.33637 6.52519 5.23636 6.59887L5.23635 6.59888C5.17985 6.64051 5.12323 6.68222 5.06532 6.72226C4.90135 6.83064 4.74546 6.95078 4.59889 7.08174L4.15027 7.47787C4.05568 7.563 3.96952 7.65737 3.8831 7.75202L3.88309 7.75203C3.8338 7.80602 3.78442 7.8601 3.73335 7.91261L3.52439 8.13444C3.481 8.1823 3.4446 8.23304 3.40804 8.284L3.40803 8.28401L3.408 8.28406C3.38783 8.31217 3.36761 8.34035 3.34614 8.36816L2.98665 8.83757L2.64104 9.42482L2.55389 9.57238L2.5321 9.60902L2.52827 9.61563L2.53111 9.61199L2.49744 9.68329L2.36276 9.96949C2.30672 10.0834 2.26109 10.2037 2.21571 10.3233L2.21571 10.3233C2.18571 10.4025 2.15582 10.4813 2.1231 10.5577C2.10099 10.6328 2.07662 10.7072 2.05223 10.7816C2.00999 10.9105 1.96768 11.0396 1.93692 11.1727C1.71264 12.0257 1.62112 12.9082 1.66558 13.7891C1.74282 15.5945 2.39445 17.4285 3.37882 19.0913C4.40312 20.7808 5.72312 22.2722 7.2757 23.4942C7.46782 23.6536 7.66589 23.8042 7.86989 23.9507L7.97242 24.0245L7.97254 24.0246C8.14136 24.1461 8.30858 24.2665 8.47992 24.3835C8.89387 24.6667 9.28505 24.9084 9.75545 25.1758C10.6136 25.6649 11.5074 26.0887 12.4293 26.4434C14.2653 27.1366 16.1816 27.5485 18.0444 27.5882H18.3831C20.122 27.5882 21.7996 27.2851 23.2574 26.6642C24.0098 26.3456 24.7165 25.9283 25.3588 25.4233C25.9583 24.9569 26.4896 24.4089 26.9374 23.7953C27.7312 22.6816 28.2442 21.3926 28.4328 20.038C28.5718 18.9703 28.5434 17.8874 28.3486 16.8284C28.2234 16.1353 28.0446 15.4529 27.8138 14.7874C27.6395 14.3308 27.5524 14.0862 27.5524 14.0862L27.6514 14.2546C27.6717 14.2932 27.6967 14.3375 27.7251 14.388C27.7798 14.4849 27.8471 14.6045 27.9188 14.7497C28.2452 15.3907 28.513 16.0599 28.719 16.7492C28.8673 17.2455 28.9814 17.7514 29.0606 18.2634C29.1496 18.8744 29.1828 19.4923 29.1596 20.1093C29.121 20.8195 29.0027 21.523 28.8071 22.2068C28.702 22.5811 28.5696 22.9471 28.411 23.3021C28.3801 23.3656 28.3518 23.4283 28.3234 23.4913L28.3233 23.4915C28.2698 23.6099 28.216 23.7293 28.1436 23.8567L28.004 24.1112C27.957 24.2018 27.9051 24.2897 27.8485 24.3746C27.3864 25.1236 26.8195 25.8026 26.1649 26.3909C25.4673 27.0161 24.6848 27.5395 23.8407 27.9457C22.0263 28.8127 20.0394 29.2585 18.0285 29.2499H17.9295C15.8349 29.2483 13.7568 28.8796 11.7895 28.1606C10.7637 27.7891 9.77002 27.334 8.81861 26.7999C8.3799 26.5543 7.87682 26.2493 7.42524 25.9432C7.19747 25.7897 6.9697 25.6363 6.74985 25.4699C6.68578 25.4214 6.62146 25.3735 6.55721 25.3257L6.55718 25.3256L6.55709 25.3256C6.40089 25.2093 6.24509 25.0932 6.09426 24.9698C4.37904 23.5932 2.88069 21.9156 1.7963 20.0093C1.52336 19.534 1.27609 19.0444 1.05554 18.5426C0.841812 18.0425 0.657626 17.5303 0.503939 17.0086C0.19104 15.9775 0.0224067 14.9081 0.00284055 13.8307C-0.0228653 12.778 0.126048 11.7282 0.44353 10.7241C0.493251 10.5568 0.556194 10.3936 0.618747 10.2314L0.618751 10.2314L0.618756 10.2314C0.648396 10.1545 0.677947 10.0779 0.705964 10.0012C0.742709 9.92335 0.7772 9.84484 0.811605 9.76653L0.81161 9.76652C0.879198 9.61267 0.946451 9.45959 1.02979 9.31391L1.20706 8.98314L1.25163 8.90095C1.27638 8.85836 1.28035 8.85341 1.28035 8.85341V8.84747L1.29223 8.82964L1.316 8.793L1.41503 8.6504L1.79135 8.08295C1.91461 7.92492 2.04354 7.77005 2.17111 7.61682L2.26769 7.50064C2.295 7.469 2.32176 7.43623 2.34844 7.40355L2.34846 7.40352L2.34847 7.40352C2.40111 7.33905 2.45347 7.27492 2.50932 7.22038L2.76482 6.97281C2.82299 6.91865 2.8798 6.86315 2.93643 6.80781L2.93643 6.80781C3.04759 6.69921 3.15807 6.59126 3.27682 6.49547L3.82149 6.07657C3.99978 5.94064 4.18705 5.8169 4.38201 5.70619C4.44811 5.66715 4.51303 5.62668 4.57767 5.58639L4.57768 5.58638C4.69993 5.51018 4.82116 5.43461 4.94748 5.37048L5.52483 5.08923C5.56423 5.0715 5.60221 5.0522 5.63973 5.03315L5.63975 5.03314C5.69652 5.0043 5.7522 4.97601 5.81004 4.95455L6.10119 4.84363C7.48897 4.30711 8.96095 4.0211 10.4487 3.99889H10.824ZM5.79319 25.3451C5.99521 25.5095 6.21704 25.6798 6.46858 25.8611C6.51134 25.8935 6.55537 25.9246 6.59957 25.9558C6.62293 25.9723 6.64633 25.9889 6.66962 26.0057L2.25084 32L3.359 23.0209C4.1011 23.8651 4.9156 24.6428 5.79319 25.3451Z" fill="#A22125"/>
</svg>
