<svg width="14" height="14" viewBox="0 0 14 14" fill="none" xmlns="http://www.w3.org/2000/svg">
<path d="M13.1848 6.52611C13.2828 6.62102 13.3603 6.73506 13.4124 6.86114C13.4645 6.98723 13.4902 7.12268 13.4878 7.2591C13.4878 7.54609 13.3868 7.78809 13.1848 7.99209C13.0905 8.09039 12.9769 8.16806 12.8511 8.22022C12.7252 8.27237 12.59 8.29786 12.4538 8.29508C12.1688 8.29508 11.9258 8.19308 11.7208 7.99209C11.6228 7.89718 11.5453 7.78314 11.4932 7.65705C11.4411 7.53097 11.4154 7.39551 11.4178 7.2591C11.4178 6.97211 11.5188 6.73011 11.7208 6.52611C11.8157 6.4281 11.9298 6.35063 12.0558 6.2985C12.1819 6.24638 12.3174 6.22072 12.4538 6.22312C12.7378 6.22312 12.9838 6.32512 13.1848 6.52611ZM11.8188 11.296C11.8199 11.4323 11.7932 11.5673 11.7402 11.6928C11.6872 11.8184 11.6092 11.9317 11.5108 12.026C11.4166 12.1245 11.3032 12.2026 11.1777 12.2556C11.0521 12.3085 10.9171 12.3352 10.7808 12.334C10.4938 12.334 10.2528 12.232 10.0478 12.031C9.94982 11.9361 9.87235 11.8221 9.82023 11.696C9.76811 11.5699 9.74245 11.4344 9.74485 11.298C9.74485 11.011 9.84684 10.77 10.0478 10.565C10.1427 10.467 10.2568 10.3896 10.3829 10.3374C10.509 10.2853 10.6444 10.2597 10.7808 10.262C11.0678 10.262 11.3098 10.364 11.5138 10.565C11.6122 10.6593 11.6901 10.7729 11.7426 10.8987C11.7951 11.0245 11.821 11.1598 11.8188 11.296ZM12.5968 3.22717C12.5968 3.72916 12.4188 4.15815 12.0618 4.51115C11.8956 4.68173 11.6964 4.81662 11.4763 4.90758C11.2563 4.99853 11.0199 5.04364 10.7818 5.04014C10.2808 5.04014 9.85184 4.86314 9.49785 4.51115C9.32686 4.3445 9.1918 4.14461 9.101 3.92379C9.01019 3.70297 8.96556 3.4659 8.96986 3.22717C8.96986 2.73018 9.14686 2.30319 9.49785 1.94719C9.66401 1.77482 9.86379 1.63839 10.0848 1.54636C10.3059 1.45434 10.5434 1.40868 10.7828 1.4122C11.2798 1.4122 11.7068 1.5912 12.0618 1.94819C12.4188 2.30119 12.5968 2.72818 12.5968 3.22717ZM7.48089 12.231C7.57872 12.326 7.65601 12.4401 7.70795 12.5662C7.7599 12.6922 7.7854 12.8277 7.78288 12.964C7.78288 13.251 7.68188 13.493 7.48089 13.697C7.38586 13.7951 7.27167 13.8727 7.14539 13.9248C7.01912 13.9769 6.88348 14.0025 6.7469 14C6.4599 14 6.21891 13.898 6.01391 13.697C5.91561 13.6023 5.83794 13.4883 5.7858 13.3622C5.73366 13.236 5.70816 13.1005 5.71092 12.964C5.71092 12.677 5.81292 12.436 6.01391 12.231C6.10882 12.133 6.22286 12.0555 6.34894 12.0034C6.47503 11.9513 6.61048 11.9256 6.7469 11.928C7.03389 11.928 7.27689 12.03 7.48089 12.231ZM7.85088 0.453221C8.15287 0.756215 8.30487 1.12221 8.30487 1.5562C8.30487 1.99019 8.15287 2.35419 7.85088 2.65818C7.70795 2.80505 7.53641 2.92103 7.34686 2.99895C7.15732 3.07687 6.9538 3.11506 6.7489 3.11117C6.31491 3.11117 5.95091 2.95918 5.64692 2.65818C5.49972 2.51545 5.38346 2.34397 5.30536 2.15439C5.22726 1.96481 5.18899 1.7612 5.19293 1.5562C5.19293 1.12221 5.34592 0.758215 5.64692 0.453221C5.78984 0.306617 5.96124 0.190802 6.15058 0.1129C6.33992 0.034997 6.54319 -0.00334606 6.7479 0.000228843C7.17989 0.000228843 7.54589 0.152226 7.84988 0.453221M3.44796 10.563C3.54579 10.658 3.62308 10.7721 3.67503 10.8982C3.72697 11.0243 3.75248 11.1597 3.74995 11.296C3.74995 11.583 3.64896 11.825 3.44796 12.03C3.35285 12.128 3.23861 12.2053 3.11235 12.2573C2.98608 12.3092 2.85048 12.3347 2.71397 12.332C2.57773 12.3331 2.4427 12.3064 2.31717 12.2534C2.19164 12.2004 2.07826 12.1224 1.98398 12.024C1.88571 11.9297 1.80778 11.8163 1.75498 11.6908C1.70219 11.5652 1.67564 11.4302 1.67699 11.294C1.67699 11.007 1.77799 10.766 1.97898 10.561C2.0741 10.4631 2.18833 10.3857 2.3146 10.3338C2.44086 10.2818 2.57646 10.2564 2.71297 10.259C2.99997 10.259 3.24496 10.36 3.44796 10.563ZM3.62796 2.31019C3.88195 2.56418 4.00895 2.87018 4.00895 3.22517C4.00895 3.58117 3.88195 3.88516 3.62796 4.14115C3.37396 4.39615 3.06797 4.52415 2.71197 4.52415C2.35698 4.52415 2.05198 4.39815 1.79699 4.14215C1.67426 4.02382 1.57713 3.88156 1.5116 3.72418C1.44606 3.56679 1.41353 3.39764 1.416 3.22717C1.416 2.87218 1.54199 2.56718 1.79699 2.31219C2.05298 2.05619 2.35698 1.93019 2.71197 1.93019C3.06797 1.93019 3.37196 2.05619 3.62796 2.31019ZM1.77699 6.52611C1.875 6.62102 1.95248 6.73506 2.0046 6.86114C2.05672 6.98723 2.08238 7.12268 2.07998 7.2591C2.07998 7.54609 1.97798 7.78809 1.77699 7.99209C1.68241 8.09054 1.56844 8.1683 1.44227 8.22045C1.3161 8.2726 1.18049 8.29802 1.044 8.29508C0.757007 8.29508 0.515011 8.19308 0.311015 7.99209C0.212688 7.89762 0.135001 7.78381 0.0828521 7.65783C0.0307031 7.53184 0.00522354 7.39642 0.00802014 7.2601C0.00802014 6.9731 0.110018 6.73111 0.311015 6.52711C0.405924 6.4291 0.519958 6.35163 0.646046 6.2995C0.772134 6.24738 0.907587 6.22172 1.044 6.22412C1.331 6.22412 1.57399 6.32612 1.77699 6.52711" fill="#1776FF"/>
</svg>
