<svg width="18" height="18" viewBox="0 0 18 18" fill="none" xmlns="http://www.w3.org/2000/svg">
<path fill-rule="evenodd" clip-rule="evenodd" d="M2.70536 1.5H15.2946C15.6143 1.5 15.9209 1.62699 16.147 1.85304C16.373 2.07909 16.5 2.38568 16.5 2.70536V15.2946C16.5 15.6143 16.373 15.9209 16.147 16.147C15.9209 16.373 15.6143 16.5 15.2946 16.5H2.70536C2.38568 16.5 2.07909 16.373 1.85304 16.147C1.62699 15.9209 1.5 15.6143 1.5 15.2946V2.70536C1.5 2.38568 1.62699 2.07909 1.85304 1.85304C2.07909 1.62699 2.38568 1.5 2.70536 1.5ZM15.2946 2.70536H2.70536V5.54883H15.2946V2.70536ZM2.70536 15.2946H15.2946V6.75419H2.70536V15.2946ZM5.11607 3.69224H4.17857V4.62974H5.11607V3.69224ZM6.72757 3.69224H5.79007V4.62974H6.72757V3.69224ZM8.326 3.69224H7.3885V4.62974H8.326V3.69224ZM10.7862 9.90752L12.4907 11.6121L10.7861 13.3168L11.4489 13.9798L13.1536 12.275H13.1538L13.8165 11.6121L11.449 9.24458L10.7862 9.90752ZM7.19847 9.90752L6.53569 9.24458L4.16817 11.6121L4.83095 12.275H4.83111L6.53586 13.9798L7.19863 13.3168L5.49406 11.6121L7.19847 9.90752ZM9.34248 7.99275L7.696 14.1376L8.60154 14.3802L10.2481 8.23539L9.34248 7.99275Z" fill="white"/>
</svg>
