<svg width="40" height="41" viewBox="0 0 40 41" fill="none" xmlns="http://www.w3.org/2000/svg">
<path d="M25.7705 3.00684H10.5627C7.51348 3.00684 5.04199 5.47871 5.04199 8.52754V32.4709C5.04199 35.5201 7.51387 37.9916 10.5627 37.9916H29.5271C32.5764 37.9916 35.0479 35.5197 35.0479 32.4709V12.2842C35.0479 11.0408 34.5541 9.84863 33.6748 8.96973L29.085 4.37988C28.2059 3.50085 27.0137 3.00697 25.7705 3.00684Z" fill="#4096FF"/>
<path d="M33.6744 8.96973L29.0846 4.37988C28.426 3.7214 27.5863 3.274 26.6725 3.09473V8.24629C26.6725 9.88184 27.9982 11.2076 29.6338 11.2076H34.9217C34.7219 10.3603 34.29 9.58536 33.6744 8.96973ZM26.1814 15.4166H20.233C20.1085 15.3911 19.9802 15.3911 19.8557 15.4166H13.9072C13.3896 15.4166 12.9697 15.8365 12.9697 16.3541C12.9697 16.8717 13.3896 17.2916 13.9072 17.2916H19.1068V27.3982C19.1068 27.9158 19.5268 28.3357 20.0443 28.3357C20.5619 28.3357 20.9818 27.9158 20.9818 27.3982V17.2916H26.1814C26.699 17.2916 27.1189 16.8717 27.1189 16.3541C27.1189 15.8365 26.699 15.4166 26.1814 15.4166Z" fill="#1776FF"/>
<path d="M26.1814 14.9478H20.233C20.1085 14.9223 19.9802 14.9223 19.8557 14.9478H13.9072C13.3896 14.9478 12.9697 15.3678 12.9697 15.8853C12.9697 16.4029 13.3896 16.8228 13.9072 16.8228H19.1068V26.9295C19.1068 27.4471 19.5268 27.867 20.0443 27.867C20.5619 27.867 20.9818 27.4471 20.9818 26.9295V16.8228H26.1814C26.699 16.8228 27.1189 16.4029 27.1189 15.8853C27.1189 15.3678 26.699 14.9478 26.1814 14.9478Z" fill="white"/>
</svg>
