<svg width="16" height="16" viewBox="0 0 16 16" fill="" xmlns="http://www.w3.org/2000/svg">
<g clip-path="url(#clip0_50_2146)">
<path d="M1.44894 1.21293H13.678V8.88357H14.8909V0.939693C14.8909 0.815731 14.8664 0.692994 14.8187 0.578551C14.7711 0.464109 14.7013 0.360223 14.6133 0.272879C14.5253 0.185535 14.421 0.116459 14.3062 0.0696298C14.1914 0.0228008 14.0685 -0.000855529 13.9445 2.36347e-05H1.18237C0.933153 2.36347e-05 0.694144 0.0990243 0.517922 0.275246C0.3417 0.451469 0.242699 0.690477 0.242699 0.939693V15.0481C0.24182 15.172 0.265477 15.2949 0.312306 15.4097C0.359135 15.5245 0.428211 15.6289 0.515555 15.7168C0.602899 15.8048 0.706785 15.8746 0.821227 15.9222C0.93567 15.9699 1.05841 15.9944 1.18237 15.9944H7.28022V14.7815H1.44894V1.21293Z" fill=""/>
<path d="M15.5706 11.3627L7.75339 8.39707C7.70392 8.37924 7.65049 8.37536 7.59895 8.38588C7.54742 8.39639 7.49978 8.42088 7.46124 8.45667C7.4227 8.49245 7.39475 8.53816 7.38045 8.58877C7.36616 8.63938 7.36607 8.69295 7.38019 8.74361L9.4528 15.7945C9.46567 15.8381 9.48876 15.8781 9.52016 15.9111C9.55157 15.944 9.59037 15.9691 9.63336 15.984C9.67636 15.999 9.7223 16.0035 9.76739 15.9972C9.81248 15.9909 9.85541 15.974 9.89264 15.9477L11.5187 14.8015L12.2718 15.4679C12.3117 15.5045 12.3611 15.5291 12.4143 15.5388C12.4676 15.5485 12.5225 15.5429 12.5727 15.5226C12.6229 15.5024 12.6663 15.4684 12.698 15.4245C12.7297 15.3806 12.7483 15.3287 12.7516 15.2746L12.8449 13.7019C12.8474 13.6611 12.8409 13.6203 12.826 13.5823C12.811 13.5443 12.7879 13.5101 12.7583 13.4819L9.07959 9.88988L13.4847 13.0554C13.5327 13.0887 13.5896 13.1065 13.648 13.1065C13.7063 13.1065 13.7633 13.0887 13.8113 13.0554L15.6306 11.8359C15.6663 11.805 15.6938 11.7657 15.7106 11.7217C15.7275 11.6776 15.7332 11.63 15.7273 11.5832C15.7214 11.5364 15.7039 11.4918 15.6766 11.4533C15.6493 11.4148 15.6129 11.3837 15.5706 11.3627ZM3.20166 2.97897H11.7986V4.18522H3.20166V2.97897ZM3.20166 5.99791H7.30022V7.20415H3.20166V5.99791Z" fill=""/>
</g>
<defs>
<clipPath id="clip0_50_2146">
<rect width="16" height="16" fill=""/>
</clipPath>
</defs>
</svg>
