<svg width="16" height="16" viewBox="0 0 16 16" fill="" xmlns="http://www.w3.org/2000/svg">
<path d="M9.00771 14.5344H2.54834C1.72178 14.5344 1.04834 13.861 1.04834 13.0344V2.53442C1.04834 1.70786 1.72178 1.03442 2.54834 1.03442H13.0483C13.8749 1.03442 14.5483 1.70786 14.5483 2.53442V9.01567C14.5483 9.29224 14.3249 9.51567 14.0483 9.51567C13.7718 9.51567 13.5483 9.29224 13.5483 9.01567V2.53442C13.5483 2.25942 13.3233 2.03442 13.0483 2.03442H2.54834C2.27334 2.03442 2.04834 2.25942 2.04834 2.53442V13.0344C2.04834 13.3094 2.27334 13.5344 2.54834 13.5344H9.00771C9.28428 13.5344 9.50772 13.7579 9.50772 14.0344C9.50772 14.311 9.28428 14.5344 9.00771 14.5344Z" fill=""/>
<path d="M10.8186 5.03589H3.83887C3.5623 5.03589 3.33887 4.81245 3.33887 4.53589C3.33887 4.25933 3.5623 4.03589 3.83887 4.03589H10.8186C11.0951 4.03589 11.3186 4.25933 11.3186 4.53589C11.3186 4.81245 11.0951 5.03589 10.8186 5.03589ZM6.07012 8.28433H3.83887C3.5623 8.28433 3.33887 8.06089 3.33887 7.78433C3.33887 7.50776 3.5623 7.28433 3.83887 7.28433H6.06855C6.34512 7.28433 6.56855 7.50776 6.56855 7.78433C6.57012 8.05933 6.34512 8.28433 6.07012 8.28433ZM6.07012 11.5312H3.83887C3.5623 11.5312 3.33887 11.3078 3.33887 11.0312C3.33887 10.7546 3.5623 10.5312 3.83887 10.5312H6.06855C6.34512 10.5312 6.56855 10.7546 6.56855 11.0312C6.57012 11.3078 6.34512 11.5312 6.07012 11.5312Z" fill=""/>
<path d="M9.75146 12.3828C8.27021 12.3828 7.06396 11.1766 7.06396 9.69531C7.06396 8.21406 8.27021 7.00781 9.75146 7.00781C11.2327 7.00781 12.439 8.21406 12.439 9.69531C12.439 11.1766 11.2343 12.3828 9.75146 12.3828ZM9.75146 8.00781C8.82021 8.00781 8.06396 8.76406 8.06396 9.69531C8.06396 10.6266 8.82021 11.3828 9.75146 11.3828C10.6827 11.3828 11.439 10.6266 11.439 9.69531C11.439 8.76406 10.6827 8.00781 9.75146 8.00781Z" fill=""/>
<path d="M12.825 13.5031L11.1016 11.7797C10.9062 11.5844 10.9062 11.2672 11.1016 11.0719C11.2969 10.8766 11.6141 10.8766 11.8094 11.0719L13.5312 12.7953C13.7266 12.9907 13.7266 13.3078 13.5312 13.5031C13.3359 13.6985 13.0203 13.6985 12.825 13.5031Z" fill=""/>
</svg>
