<svg width="16" height="16" viewBox="0 0 16 16" fill="" xmlns="http://www.w3.org/2000/svg">
<g clip-path="url(#clip0_461_12267)">
<path d="M15.4391 10.7376L14.9078 10.7188C14.9078 10.7188 14.7188 10.2298 14.6516 10.1063L15.0312 9.76728C15.2359 9.5626 15.2359 9.20635 15.0312 9.00166L14.5203 8.49072C14.3156 8.28604 13.9594 8.28604 13.7547 8.49072L13.3469 8.89854C13.1422 8.79697 12.9391 8.69385 12.7344 8.64385V8.08291C12.7344 7.77666 12.4797 7.57197 12.2234 7.57197H11.5094C11.2031 7.57197 10.9984 7.82666 10.9984 8.08291V8.64385C10.7938 8.69541 10.5906 8.79697 10.3859 8.89854L10.0281 8.49072C9.82344 8.28604 9.46719 8.28604 9.2625 8.49072L8.75 9.00322C8.54531 9.20791 8.54531 9.56416 8.75 9.76885L9.15781 10.1767C9.05625 10.3813 8.95312 10.5845 8.90312 10.7892H8.34219C8.03594 10.7892 7.83125 11.0438 7.83125 11.3001V12.0142C7.83125 12.3204 8.08594 12.5251 8.34219 12.5251H8.90312C8.95469 12.7298 9.05625 12.9329 9.15781 13.1376L8.75 13.5454C8.54531 13.7501 8.54531 14.1063 8.75 14.311L9.26094 14.822C9.46563 15.0267 9.82188 15.0267 10.0266 14.822L10.4344 14.4142C10.6391 14.5157 10.8422 14.6188 11.0469 14.6688V15.2298C11.0469 15.536 11.3016 15.7407 11.5578 15.7407H12.2719C12.5781 15.7407 12.7828 15.486 12.7828 15.2298V14.6688C12.9875 14.6173 13.1906 14.5157 13.3953 14.4142L13.8031 14.822C14.0078 15.0267 14.3641 15.0267 14.5688 14.822L15.0797 14.311C15.2844 14.1063 15.2844 13.7501 15.0797 13.5454L14.6719 13.1376C14.7734 12.9329 14.8766 12.7298 14.9266 12.5251H15.4875C15.7938 12.5251 15.9984 12.2704 15.9984 12.0142V11.3001C16 10.9938 15.7453 10.7376 15.4391 10.7376ZM11.9156 13.086C11.15 13.086 10.4859 12.422 10.4859 11.6563C10.4859 10.8907 11.15 10.2267 11.9156 10.2267C12.6812 10.2267 13.3453 10.8907 13.3453 11.6563C13.3453 12.4235 12.6812 13.086 11.9156 13.086ZM6.55625 12.9876C6.85469 12.9876 7.05469 12.7892 7.05469 12.4892C7.05469 12.1907 6.85625 11.9907 6.55625 11.9907H2.62344C2.325 11.9907 2.125 12.1892 2.125 12.4892C2.125 12.7876 2.32344 12.9876 2.62344 12.9876H6.55625ZM2.625 7.01416H9.89375C10.1922 7.01416 10.3922 6.81572 10.3922 6.51572C10.3922 6.21729 10.1938 6.01729 9.89375 6.01729H2.625C2.32656 6.01729 2.12656 6.21572 2.12656 6.51572C2.12656 6.81416 2.325 7.01416 2.625 7.01416ZM2.625 4.02666H9.89375C10.1922 4.02666 10.3922 3.82822 10.3922 3.52822C10.3922 3.22979 10.1938 3.02979 9.89375 3.02979H2.625C2.32656 3.02979 2.12656 3.22822 2.12656 3.52822C2.12656 3.82822 2.325 4.02666 2.625 4.02666ZM7.25469 9.00479H2.625C2.32656 9.00479 2.12656 9.20322 2.12656 9.50322C2.12656 9.80166 2.325 10.0017 2.625 10.0017H7.25469C7.55312 10.0017 7.75313 9.80322 7.75313 9.50322C7.75156 9.20479 7.50312 9.00479 7.25469 9.00479Z" fill=""/>
<path d="M6.60781 15.1937H1.30938C0.575 15.1937 0 14.6187 0 13.8843V1.56865C0 0.859277 0.6 0.259277 1.30938 0.259277H11.9547C12.6891 0.259277 13.2641 0.834277 13.2641 1.56865V6.34209C13.2641 6.61709 13.0406 6.84053 12.7656 6.84053C12.4906 6.84053 12.2672 6.61709 12.2672 6.34209V1.56865C12.2672 1.41709 12.1578 1.25459 11.9531 1.25459H1.30938C1.15469 1.25459 0.995313 1.4124 0.995313 1.56865V13.8843C0.995313 14.0358 1.10469 14.1983 1.30938 14.1983H6.60781C6.88281 14.1983 7.10625 14.4218 7.10625 14.6968C7.10625 14.9718 6.88281 15.1937 6.60781 15.1937Z" fill=""/>
</g>
<defs>
<clipPath id="clip0_461_12267">
<rect width="16" height="16" fill=""/>
</clipPath>
</defs>
</svg>
