<svg width="16" height="16" viewBox="0 0 16 16" fill="" xmlns="http://www.w3.org/2000/svg">
<g clip-path="url(#clip0_741_12299)">
<path d="M6.94287 15.782C6.91475 15.7824 6.88663 15.7806 6.85875 15.7769C2.94875 15.2511 0 11.8752 0 7.92375C0 3.55475 3.5545 0 7.92375 0C11.8741 0 15.25 2.94775 15.7767 6.85775C15.7881 6.93913 15.7832 7.02194 15.7625 7.10144C15.7417 7.18093 15.7054 7.25554 15.6557 7.32098C15.606 7.38641 15.5439 7.44139 15.4729 7.48274C15.4019 7.5241 15.3235 7.55102 15.242 7.56196C15.1606 7.57291 15.0778 7.56765 14.9984 7.5465C14.919 7.52535 14.8446 7.48873 14.7794 7.43873C14.7142 7.38873 14.6595 7.32634 14.6185 7.25515C14.5775 7.18395 14.5509 7.10536 14.5404 7.02388C14.0976 3.73025 11.2528 1.247 7.92375 1.247C4.238 1.25162 1.25138 4.23812 1.24688 7.92375C1.24688 11.2529 3.73125 14.0966 7.02488 14.5404C7.18181 14.5611 7.32499 14.6408 7.42535 14.7632C7.52572 14.8856 7.57576 15.0416 7.56533 15.1996C7.5549 15.3575 7.48477 15.5056 7.36918 15.6138C7.25358 15.7219 7.10118 15.7821 6.94287 15.782Z" fill=""/>
<path d="M6.97296 11.708C6.91259 11.708 6.85221 11.6991 6.79434 11.6819C5.98866 11.4356 5.28293 10.9379 4.78041 10.2617C4.27788 9.58551 4.00492 8.76624 4.00146 7.92376C4.00309 5.75751 5.75846 4.00176 7.92484 3.99938C9.65209 3.99188 11.1788 5.12101 11.6777 6.77451C11.7219 6.93132 11.7029 7.09919 11.6249 7.2422C11.5468 7.3852 11.4159 7.49197 11.2601 7.53964C11.1043 7.58731 10.9361 7.57211 10.7914 7.49728C10.6467 7.42245 10.537 7.29393 10.4858 7.13926C10.32 6.59014 9.98115 6.10929 9.51985 5.76834C9.05855 5.42739 8.49946 5.24458 7.92584 5.24713C6.44809 5.24951 5.25096 6.44701 5.24921 7.92476C5.2514 8.49938 5.43745 9.05821 5.78015 9.51947C6.12284 9.98072 6.60418 10.3202 7.15371 10.4881C7.29655 10.5317 7.419 10.6251 7.49881 10.7513C7.57861 10.8775 7.61047 11.0282 7.58858 11.1759C7.56669 11.3236 7.49252 11.4586 7.37954 11.5562C7.26656 11.6539 7.12229 11.7077 6.97296 11.708Z" fill=""/>
<path d="M11.2239 15.8901L8.89014 8.89L15.8913 11.2237L11.2239 15.8901ZM10.8621 10.8611L11.7693 13.5825L13.5834 11.7681L10.8621 10.8611Z" fill=""/>
</g>
<defs>
<clipPath id="clip0_741_12299">
<rect width="16" height="16" fill=""/>
</clipPath>
</defs>
</svg>
