<svg width="16" height="16" viewBox="0 0 16 16" fill="" xmlns="http://www.w3.org/2000/svg">
<path d="M8 1C4.13437 1 1 4.13437 1 8C1 11.8656 4.13437 15 8 15C11.8656 15 15 11.8656 15 8C15 4.13437 11.8656 1 8 1ZM8 13.8125C4.79063 13.8125 2.1875 11.2094 2.1875 8C2.1875 4.79063 4.79063 2.1875 8 2.1875C11.2094 2.1875 13.8125 4.79063 13.8125 8C13.8125 11.2094 11.2094 13.8125 8 13.8125Z" fill=""/>
<path d="M10.875 7.49927H5.125C5.05625 7.49927 5 7.55552 5 7.62427V8.37427C5 8.44302 5.05625 8.49927 5.125 8.49927H10.875C10.9438 8.49927 11 8.44302 11 8.37427V7.62427C11 7.55552 10.9438 7.49927 10.875 7.49927Z" fill=""/>
</svg>
