<svg width="15" height="14" viewBox="0 0 15 14" fill="" xmlns="http://www.w3.org/2000/svg">
<path fill-rule="evenodd" clip-rule="evenodd" d="M11.7931 4.44792H12.8143C13.095 4.44792 13.3247 4.21823 13.3247 3.9375C13.3247 3.65677 13.095 3.42708 12.8143 3.42708H10.2622V2.40625C10.2622 1.56202 9.57519 0.875 8.73096 0.875H5.66846C4.82423 0.875 4.13721 1.56202 4.13721 2.40625V3.42708H1.58512C1.30439 3.42708 1.07471 3.65677 1.07471 3.9375C1.07471 4.21823 1.30439 4.44792 1.58512 4.44792H2.62091V11.6091C2.62091 12.4452 3.3013 13.125 4.13685 13.125H10.2772C11.1132 13.125 11.7931 12.4452 11.7931 11.6091V4.44792ZM9.24137 3.42708H5.15804V2.40625C5.15804 2.12501 5.38722 1.89583 5.66846 1.89583H8.73096C9.01271 1.89583 9.24137 2.12501 9.24137 2.40625V3.42708ZM5.15804 10.0625C5.15804 10.3432 5.38773 10.5729 5.66846 10.5729C5.94919 10.5729 6.17887 10.3432 6.17887 10.0625V6.48958C6.17887 6.20885 5.94919 5.97917 5.66846 5.97917C5.38773 5.97917 5.15804 6.20885 5.15804 6.48958V10.0625ZM8.22054 10.0625C8.22054 10.3432 8.45023 10.5729 8.73096 10.5729C9.01169 10.5729 9.24137 10.3432 9.24137 10.0625V6.48958C9.24137 6.20885 9.01169 5.97917 8.73096 5.97917C8.45023 5.97917 8.22054 6.20885 8.22054 6.48958V10.0625ZM3.64174 11.6091V4.44795H10.7723V11.6091C10.7723 11.8822 10.5507 12.1042 10.2772 12.1042H4.13685C4.00558 12.1041 3.87973 12.0519 3.78691 11.959C3.69409 11.8662 3.64188 11.7404 3.64174 11.6091Z" fill=""/>
</svg>
