<svg width="16" height="16" viewBox="0 0 16 16" fill="" xmlns="http://www.w3.org/2000/svg">
<path fill-rule="evenodd" clip-rule="evenodd" d="M9.0929 3.14074C9.03068 1.88563 7.98653 0.888889 6.71009 0.888889C5.39335 0.888889 4.32372 1.94904 4.32372 3.25926H2.22594L2.14535 3.26282C1.69142 3.3037 1.33468 3.68356 1.33468 4.14815L1.3335 6.91615L1.33764 6.98726C1.34817 7.07537 1.37834 7.15998 1.42595 7.23487C1.47355 7.30975 1.53735 7.37299 1.61266 7.41992C1.68797 7.46684 1.77286 7.49626 1.86105 7.50599C1.94925 7.51572 2.03851 7.50552 2.12224 7.47615L2.21942 7.44652C2.31779 7.42104 2.42031 7.408 2.5252 7.408C3.1895 7.408 3.72579 7.93956 3.72579 8.59319C3.72579 9.24682 3.1889 9.77837 2.5252 9.77837C2.38535 9.77837 2.25024 9.75526 2.12224 9.71022L2.05409 9.69067C1.96746 9.6715 1.87764 9.67204 1.79124 9.69222C1.70485 9.71241 1.62409 9.75174 1.55493 9.80731C1.48576 9.86288 1.42996 9.93327 1.39164 10.0133C1.35331 10.0933 1.33344 10.1809 1.3335 10.2696L1.33468 13.037L1.33824 13.1182C1.35892 13.3393 1.46141 13.5446 1.62562 13.694C1.78983 13.8435 2.00393 13.9262 2.22594 13.9259H7.26238L7.33113 13.9218C7.47538 13.9049 7.60843 13.8357 7.705 13.7272C7.80157 13.6187 7.85494 13.4786 7.85498 13.3333L7.85083 13.264C7.83385 13.1199 7.76455 12.9869 7.65609 12.8905C7.54762 12.794 7.40753 12.7408 7.26238 12.7407H2.51927L2.51868 10.963L2.64372 10.96C3.90535 10.8984 4.91098 9.86311 4.91098 8.59259L4.90801 8.47407C4.84579 7.21896 3.80164 6.22222 2.52461 6.22222H2.51868L2.51927 4.44444L5.01824 4.44563L5.08935 4.44148C5.17778 4.43093 5.26269 4.40058 5.33778 4.3527C5.41286 4.30481 5.47619 4.24062 5.52305 4.16489C5.56991 4.08916 5.5991 4.00384 5.60845 3.91527C5.6178 3.82671 5.60707 3.73718 5.57705 3.65333L5.54742 3.55852C5.52194 3.46193 5.5089 3.36237 5.5089 3.25985C5.5089 2.60622 6.0452 2.07467 6.71009 2.07467C7.37438 2.07467 7.91068 2.60622 7.91068 3.25985C7.91068 3.39615 7.88757 3.52889 7.84313 3.65393L7.82298 3.72207C7.80331 3.80886 7.80344 3.89896 7.82336 3.98568C7.84328 4.07241 7.88247 4.15354 7.93803 4.22304C7.99359 4.29255 8.06409 4.34865 8.1443 4.38719C8.22451 4.42572 8.31236 4.44569 8.40135 4.44563L10.8997 4.44444L10.8991 6.91556L10.9033 6.98667C10.9138 7.07477 10.944 7.15939 10.9916 7.23427C11.0392 7.30916 11.103 7.3724 11.1783 7.41932C11.2536 7.46625 11.3385 7.49566 11.4267 7.5054C11.5149 7.51513 11.6041 7.50493 11.6879 7.47556L11.7851 7.44593C11.963 7.40018 12.1489 7.39523 12.329 7.43145C12.5091 7.46768 12.6787 7.54413 12.8251 7.65511C12.8868 7.70243 12.9573 7.73711 13.0325 7.75717C13.1077 7.77724 13.1861 7.7823 13.2633 7.77207C13.3404 7.76183 13.4148 7.7365 13.4822 7.69752C13.5495 7.65854 13.6086 7.60668 13.6559 7.54489C13.7032 7.4831 13.7379 7.4126 13.7579 7.3374C13.778 7.26221 13.7831 7.1838 13.7728 7.10665C13.7626 7.02951 13.7373 6.95513 13.6983 6.88777C13.6593 6.82041 13.6074 6.76139 13.5456 6.71407L13.4301 6.63111C13.0384 6.36682 12.575 6.22222 12.0902 6.22222H12.0843L12.0849 4.14815L12.0813 4.06696C12.0405 3.61304 11.6576 3.25926 11.1936 3.25926H9.09587L9.0929 3.14074ZM13.3839 9.18519H10.0239L8.3575 12.1481L10.0239 15.1111H13.3839L15.0502 12.1481L13.3839 9.18519ZM12.6905 10.3704L13.6902 12.1481L12.6899 13.9259H10.7172L9.7169 12.1481L10.7166 10.3704H12.6905ZM10.815 12.1482C10.815 12.3839 10.9086 12.61 11.0753 12.7767C11.242 12.9434 11.4681 13.037 11.7039 13.037C11.9396 13.037 12.1657 12.9434 12.3324 12.7767C12.4991 12.61 12.5928 12.3839 12.5928 12.1482C12.5928 11.9124 12.4991 11.6863 12.3324 11.5196C12.1657 11.3529 11.9396 11.2593 11.7039 11.2593C11.4681 11.2593 11.242 11.3529 11.0753 11.5196C10.9086 11.6863 10.815 11.9124 10.815 12.1482Z" fill=""/>
</svg>
