<svg width="16" height="17" viewBox="0 0 16 17" fill="" xmlns="http://www.w3.org/2000/svg">
<path fill-rule="evenodd" clip-rule="evenodd" d="M3.2936 5.50046C4.43897 6.188 6.34489 6.53177 8.22217 6.53177C10.0994 6.53177 12.0054 6.17368 13.1507 5.4847V7.03176C13.1507 7.63891 11.1864 8.53176 8.22217 8.53176C5.25788 8.53176 3.2936 7.63891 3.2936 7.03176V5.50046ZM2.22217 3.9595C2.22217 3.95978 2.22217 3.96006 2.22217 3.96034V3.96034V7.03176V10.0675V13.1032C2.22217 14.7818 5.25788 15.6746 8.22217 15.6746C11.1864 15.6746 14.2222 14.8175 14.2222 13.1032V10.0675V7.03176V3.96034C14.2222 2.28177 11.1864 1.38892 8.22217 1.38892C5.25836 1.38892 2.22316 2.24578 2.22217 3.9595ZM13.1507 8.55612C12.0054 9.2451 10.0994 9.60319 8.22217 9.60319C6.34489 9.60319 4.43897 9.2451 3.2936 8.55612V10.0675C3.2936 10.6746 5.25788 11.5675 8.22217 11.5675C11.1864 11.5675 13.1507 10.6746 13.1507 10.0675V8.55612ZM13.1507 11.5918C12.0054 12.2808 10.0994 12.6389 8.22217 12.6389C6.34489 12.6389 4.43897 12.2808 3.2936 11.5918V13.1032C3.2936 13.7103 5.25788 14.6032 8.22217 14.6032C11.1864 14.6032 13.1507 13.7103 13.1507 13.1032V11.5918ZM3.2936 3.96034C3.2936 3.3532 5.25788 2.46034 8.22217 2.46034C11.1864 2.46034 13.1507 3.3532 13.1507 3.96034C13.1507 4.56749 11.1864 5.46034 8.22217 5.46034C5.25788 5.46034 3.2936 4.56749 3.2936 3.96034Z" fill=""/>
</svg>
