<svg width="16" height="16" viewBox="0 0 16 16" fill="" xmlns="http://www.w3.org/2000/svg">
<path fill-rule="evenodd" clip-rule="evenodd" d="M7.51707 0.888889C10.8945 0.888889 13.7006 2.13612 13.7006 3.98068V7.7001C13.7005 7.8577 13.6401 8.0093 13.5319 8.1239C13.4237 8.2385 13.2759 8.30747 13.1185 8.31671C12.9612 8.32594 12.8063 8.27475 12.6854 8.17359C12.5645 8.07244 12.4869 7.92895 12.4683 7.77245L12.4639 7.7001L12.4645 5.88707C11.3305 6.63158 9.52426 7.07246 7.51707 7.07246C5.50988 7.07246 3.70428 6.63219 2.57021 5.88769V6.46462L2.57392 6.51718C2.66296 7.33527 4.49207 8.21643 6.92221 8.30918C7.00463 8.31037 7.08598 8.32803 7.16148 8.36112C7.23698 8.39421 7.3051 8.44205 7.36184 8.50185C7.41857 8.56165 7.46278 8.63218 7.49186 8.70931C7.52095 8.78644 7.53431 8.86861 7.53118 8.95098C7.52805 9.03335 7.50848 9.11426 7.47362 9.18896C7.43876 9.26365 7.38932 9.33063 7.32821 9.38594C7.26709 9.44125 7.19553 9.48379 7.11774 9.51105C7.03995 9.5383 6.95749 9.54973 6.87522 9.54466C5.12959 9.47787 3.58246 9.05616 2.57021 8.38462V8.93805L2.57392 8.99556C2.64936 9.70914 3.88731 10.4914 5.75908 10.7894C5.92111 10.8152 6.06628 10.9042 6.16264 11.037C6.25901 11.1698 6.29868 11.3354 6.27293 11.4974C6.24719 11.6595 6.15813 11.8046 6.02535 11.901C5.89257 11.9974 5.72695 12.037 5.56492 12.0113C4.35726 11.819 3.31719 11.4424 2.57021 10.9279V11.4276C2.57021 12.2085 4.32573 13.1014 6.75525 13.2573C6.91892 13.2678 7.07172 13.3429 7.18003 13.466C7.28834 13.5892 7.3433 13.7503 7.3328 13.914C7.3223 14.0776 7.24722 14.2304 7.12407 14.3388C7.00091 14.4471 6.83977 14.502 6.6761 14.4915C3.72963 14.3029 1.43305 13.162 1.33659 11.5345L1.3335 11.4276V3.98068L1.33659 3.87679C1.43985 2.08974 4.20267 0.888889 7.51707 0.888889ZM7.51707 2.1256C4.74683 2.1256 2.57021 3.09333 2.57021 3.98068C2.57021 4.86802 4.74683 5.83575 7.51707 5.83575C10.2873 5.83575 12.4639 4.86802 12.4639 3.98068C12.4639 3.09333 10.2873 2.1256 7.51707 2.1256ZM9.9905 12.0193C9.9905 12.2653 10.0882 12.5012 10.2622 12.6752C10.4361 12.8491 10.672 12.9469 10.918 12.9469C11.164 12.9469 11.4 12.8491 11.5739 12.6752C11.7479 12.5012 11.8456 12.2653 11.8456 12.0193C11.8456 11.7733 11.7479 11.5374 11.5739 11.3635C11.4 11.1895 11.164 11.0918 10.918 11.0918C10.672 11.0918 10.4361 11.1895 10.2622 11.3635C10.0882 11.5374 9.9905 11.7733 9.9905 12.0193ZM9.165 8.92754H12.6711L14.4099 12.0193L12.6711 15.1111H9.165L7.42618 12.0193L9.165 8.92754ZM12.9908 12.0193L11.9476 10.1643H9.88786L8.84469 12.0193L9.88848 13.8744H11.947L12.9908 12.0193Z" fill=""/>
</svg>
