<svg width="16" height="16" viewBox="0 0 16 16" fill="" xmlns="http://www.w3.org/2000/svg">
<path d="M12.0887 2.84448C12.3716 2.84448 12.6429 2.95686 12.8429 3.1569C13.043 3.35694 13.1553 3.62825 13.1553 3.91115V9.77782C13.1553 10.0607 13.043 10.332 12.8429 10.5321C12.6429 10.7321 12.3716 10.8445 12.0887 10.8445H3.9109C3.62801 10.8445 3.3567 10.7321 3.15666 10.5321C2.95662 10.332 2.84424 10.0607 2.84424 9.77782V3.91115C2.84424 3.77107 2.87183 3.63237 2.92543 3.50295C2.97904 3.37354 3.05761 3.25595 3.15666 3.1569C3.3567 2.95686 3.62801 2.84448 3.9109 2.84448H12.0887ZM11.6905 5.19542C11.649 5.15433 11.5998 5.12182 11.5458 5.09973C11.4918 5.07765 11.4339 5.06643 11.3755 5.06671C11.3171 5.06699 11.2594 5.07877 11.2056 5.10137C11.1518 5.12397 11.1029 5.15696 11.0618 5.19844L9.12797 7.15026L7.91979 5.78546L7.89793 5.76235C7.814 5.68023 7.70098 5.63466 7.58357 5.63559C7.46615 5.63652 7.35387 5.68388 7.27126 5.76733L5.01739 8.0427L4.99588 8.06582C4.92266 8.15111 4.88448 8.26099 4.88903 8.37331C4.89358 8.48563 4.94053 8.59206 5.02042 8.67115L5.04353 8.69266C5.12882 8.76588 5.2387 8.80406 5.35102 8.79951C5.46334 8.79496 5.56977 8.74801 5.64886 8.66813L7.56868 6.72999L8.77704 8.09497L8.7989 8.11808C8.88283 8.2002 8.99585 8.24577 9.11326 8.24484C9.23068 8.24391 9.34296 8.19655 9.42557 8.1131L11.6933 5.82404L11.7148 5.80093C11.788 5.71563 11.8262 5.60576 11.8217 5.49343C11.8171 5.38111 11.7702 5.27468 11.6903 5.19559L11.6905 5.19542ZM5.33313 11.7334H10.6665C10.8079 11.7334 10.9436 11.7896 11.0436 11.8896C11.1436 11.9896 11.1998 12.1253 11.1998 12.2667C11.1998 12.4082 11.1436 12.5438 11.0436 12.6438C10.9436 12.7438 10.8079 12.8 10.6665 12.8H5.33313C5.19168 12.8 5.05602 12.7438 4.956 12.6438C4.85598 12.5438 4.79979 12.4082 4.79979 12.2667C4.79979 12.1253 4.85598 11.9896 4.956 11.8896C5.05602 11.7896 5.19168 11.7334 5.33313 11.7334Z" fill=""/>
</svg>
