<svg width="16" height="17" viewBox="0 0 16 17" fill="" xmlns="http://www.w3.org/2000/svg">
<path d="M3.74385 4.78317C3.49041 4.78651 3.28766 5.0066 3.29033 5.27472C3.28766 5.54316 3.49041 5.76292 3.74385 5.76659H9.18283C9.43627 5.76326 9.63903 5.54316 9.63636 5.27472C9.63903 5.0066 9.43627 4.78651 9.18283 4.78317H3.74385ZM6.46368 7.73309H3.74385C3.49041 7.73643 3.28766 7.95652 3.29033 8.22464C3.28766 8.49275 3.49041 8.71284 3.74385 8.71618H6.46368C6.71712 8.71284 6.91987 8.49275 6.9172 8.22464C6.91932 8.09707 6.87269 7.97351 6.78681 7.87916C6.74577 7.83405 6.69593 7.79782 6.64035 7.7727C6.58478 7.74758 6.52465 7.7341 6.46368 7.73309ZM7.226 13.6333C7.47711 13.6333 7.67953 13.853 7.67953 14.1251C7.68219 14.3933 7.47944 14.6134 7.226 14.6167H3.1466C2.14617 14.6167 1.3335 13.7353 1.3335 12.6502V3.79975C1.3335 2.71463 2.14584 1.83325 3.1466 1.83325H11.3051C12.3052 1.83325 13.1178 2.71463 13.1178 3.79975V6.25813C13.1205 6.52625 12.9178 6.74634 12.6643 6.74968C12.4112 6.74601 12.2088 6.52625 12.2118 6.25813V3.79975C12.2118 3.25652 11.8066 2.81667 11.3051 2.81667H3.1466C2.64539 2.81667 2.23988 3.25586 2.23988 3.79975V12.6502C2.23988 13.1937 2.64539 13.6333 3.14693 13.6333H7.226ZM10.8615 15.1633C9.85145 15.1626 8.88337 14.7374 8.16973 13.9807C7.4561 13.2244 7.05559 12.1987 7.05626 11.1295C7.05559 10.0607 7.45643 9.03531 8.17007 8.27933C8.8837 7.523 9.85178 7.09782 10.8612 7.09716C11.8713 7.09782 12.8394 7.523 13.553 8.27933C14.2667 9.03531 14.6672 10.0607 14.6668 11.1299C14.6675 12.1987 14.2667 13.2241 13.553 13.9811C12.8394 14.7374 11.8713 15.1626 10.8615 15.1633ZM10.8615 14.3729C11.6729 14.3716 12.4506 14.0294 13.0235 13.4208C13.5964 12.8129 13.9172 11.9886 13.9162 11.1299C13.9182 9.34144 12.5506 7.89016 10.8615 7.88749C9.17216 7.89016 7.80458 9.34144 7.80691 11.1299C7.80558 11.9886 8.12672 12.8129 8.69963 13.4208C9.27254 14.0291 10.0502 14.3712 10.8615 14.3729ZM10.5377 12.5772V9.70727C10.5377 9.50118 10.7452 9.38046 10.8962 9.49951L12.7163 10.9345C12.777 10.9845 12.8127 11.0612 12.8127 11.1425C12.813 11.1823 12.8044 11.2216 12.7877 11.2576C12.771 11.2936 12.7465 11.3255 12.716 11.351L10.8962 12.7859C10.7462 12.905 10.5377 12.7842 10.5377 12.5782V12.5772ZM9.62802 9.70727C9.62802 9.56621 9.72973 9.45249 9.85545 9.45249C9.9815 9.45249 10.0829 9.56621 10.0829 9.70727V12.6665C10.0829 12.8076 9.98084 12.9213 9.85545 12.9213C9.82438 12.9202 9.79387 12.9128 9.76577 12.8995C9.73767 12.8862 9.71259 12.8673 9.69205 12.8439C9.64891 12.7951 9.62602 12.7317 9.62802 12.6665V9.70727Z" fill=""/>
</svg>
