<svg width="16" height="16" viewBox="0 0 16 16" fill="" xmlns="http://www.w3.org/2000/svg">
<path fill-rule="evenodd" clip-rule="evenodd" d="M12.3311 1.15206C12.1644 0.985375 11.9383 0.891734 11.7026 0.891734L3.9999 0.888889C3.76417 0.888889 3.5381 0.98253 3.37142 1.14921C3.20473 1.31589 3.1111 1.54196 3.1111 1.77769V3.55529C3.1111 3.79101 3.20473 4.01708 3.37142 4.18377C3.5381 4.35045 3.76417 4.44409 3.9999 4.44409H11.704C11.8208 4.44418 11.9364 4.42126 12.0443 4.37662C12.1521 4.33199 12.2501 4.26653 12.3327 4.18397C12.4153 4.10142 12.4807 4.0034 12.5253 3.89553C12.57 3.78765 12.5929 3.67203 12.5928 3.55529V3.2595H13.7802V6.8147H12.5949V6.52104L12.5914 6.43571C12.57 6.21574 12.4675 6.01161 12.3039 5.86308C12.1402 5.71455 11.9271 5.63226 11.7061 5.63224H4.00345L3.91812 5.6365C3.69822 5.65771 3.4941 5.76006 3.34555 5.92359C3.19701 6.08712 3.11469 6.30011 3.11465 6.52104V8.00213H2.22585L2.14052 8.0064C1.91998 8.02678 1.71499 8.12876 1.56571 8.29238C1.41643 8.45599 1.33362 8.66945 1.3335 8.89093V13.0363L1.33776 13.1216C1.35897 13.3415 1.46132 13.5456 1.62485 13.6942C1.78838 13.8427 2.00137 13.9251 2.2223 13.9251H3.1111V14.2223L3.11536 14.3076C3.13657 14.5275 3.23892 14.7317 3.40245 14.8802C3.56598 15.0288 3.77897 15.1111 3.9999 15.1111H6.64425L6.71536 15.1068C6.85954 15.09 6.99252 15.0208 7.0891 14.9124C7.18568 14.804 7.23916 14.664 7.23939 14.5188L7.23513 14.4477C7.21791 14.3037 7.14848 14.1709 7.03999 14.0746C6.93149 13.9783 6.79146 13.9251 6.64638 13.9251H4.29995V12.7426H6.07755L6.14866 12.7384C6.29983 12.7218 6.43884 12.6478 6.5369 12.5315C6.63497 12.4153 6.68456 12.2658 6.67542 12.114C6.66628 11.9622 6.59911 11.8197 6.48781 11.7161C6.37651 11.6125 6.22962 11.5556 6.07755 11.5573H4.00345L3.91812 11.5616C3.69758 11.582 3.49259 11.684 3.34331 11.8476C3.19403 12.0112 3.11122 12.2246 3.1111 12.4461V12.7419H2.5188V9.18672H3.1111V9.48323L3.11536 9.56855C3.13657 9.78846 3.23892 9.99258 3.40245 10.1411C3.56598 10.2897 3.77897 10.372 3.9999 10.372H6.6407L6.7118 10.3678C6.85604 10.3507 6.98903 10.2814 7.0856 10.1729C7.18217 10.0644 7.23562 9.92427 7.23584 9.77902L7.23157 9.70792C7.21451 9.56374 7.14515 9.43083 7.03664 9.33438C6.92814 9.23792 6.78801 9.18463 6.64283 9.18459H4.2964V6.8147H11.4068V8.00213H14.0732L14.1585 7.99787C14.3785 7.97681 14.5827 7.87451 14.7313 7.71095C14.8799 7.54738 14.9621 7.3343 14.962 7.11333V2.96584L14.9577 2.88051C14.9365 2.66061 14.8342 2.45648 14.6706 2.30794C14.5071 2.15939 14.2941 2.07708 14.0732 2.07704H12.5914V1.78053C12.5914 1.54481 12.4978 1.31874 12.3311 1.15206ZM4.2964 2.07704H11.4068V3.2595H4.2964V2.07704ZM12.7905 9.18743H9.43082L7.76415 12.1475L9.43082 15.1097H12.7905L14.4564 12.1475L12.7905 9.18459V9.18743ZM13.0905 12.1475L12.0951 13.9251H10.1241L9.12365 12.1475L10.1234 10.3699H12.0951L13.0905 12.1475ZM10.2215 12.1475C10.2215 12.3233 10.2736 12.4951 10.3713 12.6413C10.4689 12.7874 10.6078 12.9014 10.7702 12.9686C10.9326 13.0359 11.1113 13.0535 11.2837 13.0192C11.4561 12.9849 11.6145 12.9003 11.7388 12.776C11.8631 12.6517 11.9477 12.4933 11.982 12.3209C12.0163 12.1485 11.9987 11.9698 11.9314 11.8074C11.8642 11.645 11.7502 11.5061 11.6041 11.4085C11.4579 11.3108 11.2861 11.2587 11.1103 11.2587C10.8746 11.2587 10.6485 11.3523 10.4818 11.519C10.3151 11.6857 10.2215 11.9118 10.2215 12.1475Z" fill=""/>
</svg>
