<svg width="16" height="16" viewBox="0 0 16 16" fill="" xmlns="http://www.w3.org/2000/svg">
<path fill-rule="evenodd" clip-rule="evenodd" d="M15.1109 1.33333V12.225H10.8802V12.7651H11.6003V13.4852H12.3205V14.2053H13.0406V14.9255H2.86898V14.3854H3.58909V13.6653H4.21919V12.9452H4.93931V12.225H0.888672V1.33333H15.1109ZM2.23888 2.68355V10.8748H13.7607V2.68355H2.23888ZM10.9703 5.83403H10.1601V3.22362H11.9604V5.83403H11.3303V7.27425H8.7199V5.83403H7.90977V4.57383H7.36969V5.83403H6.73959V9.25456H5.47939V10.3347H3.67911V7.63431H5.47939V8.89451H6.28952V5.83403H5.47939V3.22362H7.36969V4.21378H7.90977V3.22362H9.71006V5.83403H9.16997V6.9142H10.9703V5.83403Z" fill=""/>
</svg>
