<svg width="16" height="16" viewBox="0 0 16 16" fill="" xmlns="http://www.w3.org/2000/svg">
<path d="M14.6288 2.06393L13.936 1.37108C13.9098 1.34493 13.8772 1.3335 13.8428 1.3335C13.8085 1.3335 13.7758 1.34657 13.7497 1.37108L12.5062 2.61462C11.9656 2.24835 11.3273 2.05306 10.6743 2.05413C9.83769 2.05413 9.00103 2.37278 8.36211 3.01171L6.69697 4.67684C6.67264 4.70141 6.65899 4.73459 6.65899 4.76917C6.65899 4.80374 6.67264 4.83692 6.69697 4.86149L11.1368 9.30131C11.1629 9.32746 11.1956 9.3389 11.2299 9.3389C11.2626 9.3389 11.2969 9.32583 11.3231 9.30131L12.9882 7.63618C14.1141 6.50866 14.2465 4.76508 13.3853 3.49376L14.6288 2.25022C14.6795 2.19793 14.6795 2.11459 14.6288 2.06393ZM12.2006 6.85018L11.2299 7.82083L8.17745 4.76835L9.1481 3.7977C9.55499 3.39081 10.0975 3.16531 10.6743 3.16531C11.2512 3.16531 11.7921 3.38918 12.2006 3.7977C12.6075 4.20459 12.833 4.74711 12.833 5.32394C12.833 5.90077 12.6075 6.44166 12.2006 6.85018ZM9.09254 8.56597C9.06797 8.54165 9.03479 8.528 9.00022 8.528C8.96564 8.528 8.93246 8.54165 8.90789 8.56597L7.81959 9.65428L6.34401 8.17869L7.43394 7.08876C7.4846 7.0381 7.4846 6.95476 7.43394 6.90411L6.83913 6.3093C6.81456 6.28497 6.78139 6.27132 6.74681 6.27132C6.71223 6.27132 6.67905 6.28497 6.65448 6.3093L5.56455 7.39923L4.86189 6.69658C4.84969 6.68437 4.83515 6.67475 4.81915 6.66829C4.80314 6.66183 4.786 6.65867 4.76874 6.65899C4.73606 6.65899 4.70175 6.67206 4.6756 6.69658L3.0121 8.36171C1.88621 9.48923 1.75385 11.2328 2.61501 12.5041L1.37147 13.7477C1.34714 13.7722 1.3335 13.8054 1.3335 13.84C1.3335 13.8746 1.34714 13.9078 1.37147 13.9323L2.06433 14.6252C2.09047 14.6513 2.12315 14.6628 2.15747 14.6628C2.19179 14.6628 2.22447 14.6497 2.25061 14.6252L3.49415 13.3816C4.04484 13.7558 4.68541 13.9421 5.32597 13.9421C6.16262 13.9421 6.99928 13.6235 7.6382 12.9845L9.30334 11.3194C9.354 11.2688 9.354 11.1854 9.30334 11.1348L8.60068 10.4321L9.69062 9.34217C9.74128 9.29151 9.74128 9.20817 9.69062 9.15751L9.09254 8.56597ZM6.85057 12.2002C6.65058 12.4012 6.41272 12.5606 6.15075 12.6691C5.88878 12.7777 5.6079 12.8332 5.32433 12.8326C4.7475 12.8326 4.20662 12.6087 3.79809 12.2002C3.59707 12.0002 3.43768 11.7623 3.32914 11.5004C3.22059 11.2384 3.16504 10.9575 3.1657 10.6739C3.1657 10.0971 3.38957 9.55623 3.79809 9.14771L4.76874 8.17706L7.82122 11.2295L6.85057 12.2002Z" fill=""/>
</svg>
