<svg width="15" height="15" viewBox="0 0 15 15" fill="" xmlns="http://www.w3.org/2000/svg">
<path d="M1.95605 1.95605H13.0371V13.0371H1.95605V1.95605ZM3.12505 3.12505V11.8751H11.8751V3.12505H3.12505ZM6.10705 7.45105L4.83305 8.72505C4.95905 9.01905 4.81905 9.36205 4.52505 9.48805C4.23105 9.61405 3.88805 9.47406 3.76205 9.18006C3.63605 8.88605 3.77605 8.54306 4.07005 8.41706C4.21705 8.35405 4.38505 8.35405 4.53205 8.41706L5.79905 7.15005C5.67305 6.85605 5.80605 6.51305 6.10705 6.38705C6.40105 6.26105 6.74405 6.39405 6.87005 6.69505C6.91206 6.79305 6.92605 6.89805 6.91205 6.99605L8.59205 7.92705C8.73905 7.80805 8.93505 7.76605 9.12405 7.82205L10.2371 5.80605C10.0481 5.54705 10.1041 5.18305 10.3701 4.99405C10.6291 4.80505 10.9931 4.86105 11.1821 5.12705C11.3711 5.38605 11.3151 5.75005 11.0491 5.93905C10.9231 6.03005 10.7621 6.07205 10.6011 6.03705L9.46005 8.08805C9.62105 8.36805 9.52305 8.72505 9.24305 8.88605C8.96305 9.04705 8.60605 8.94906 8.44505 8.66905C8.38205 8.55705 8.35405 8.43105 8.37505 8.30505L6.69505 7.37405C6.53405 7.50705 6.30305 7.54205 6.10705 7.45105Z" fill=""/>
</svg>
