<svg width="16" height="16" viewBox="0 0 16 16" fill="" xmlns="http://www.w3.org/2000/svg">
<path d="M3.74385 4.28342C3.49041 4.28675 3.28766 4.50685 3.29033 4.77496C3.28766 5.04341 3.49041 5.26317 3.74385 5.26684H9.18283C9.43627 5.2635 9.63903 5.04341 9.63636 4.77496C9.63903 4.50685 9.43627 4.28675 9.18283 4.28342H3.74385ZM6.46368 7.23334H3.74385C3.49041 7.23667 3.28766 7.45677 3.29033 7.72488C3.28766 7.99299 3.49041 8.21309 3.74385 8.21642H6.46368C6.71712 8.21309 6.91987 7.99299 6.9172 7.72488C6.91932 7.59732 6.87269 7.47375 6.78681 7.3794C6.74577 7.33429 6.69593 7.29806 6.64035 7.27294C6.58478 7.24782 6.52465 7.23434 6.46368 7.23334ZM7.226 13.1335C7.47711 13.1335 7.67953 13.3533 7.67953 13.6254C7.68219 13.8935 7.47944 14.1136 7.226 14.1169H3.1466C2.14617 14.1169 1.3335 13.2356 1.3335 12.1504V3.3C1.3335 2.21487 2.14584 1.3335 3.1466 1.3335H11.3051C12.3052 1.3335 13.1178 2.21487 13.1178 3.3V5.75838C13.1205 6.02649 12.9178 6.24658 12.6643 6.24992C12.4112 6.24625 12.2088 6.02649 12.2118 5.75838V3.3C12.2118 2.75677 11.8066 2.31691 11.3051 2.31691H3.1466C2.64539 2.31691 2.23988 2.7561 2.23988 3.3V12.1504C2.23988 12.694 2.64539 13.1335 3.14693 13.1335H7.226ZM10.8615 14.6635C9.85145 14.6628 8.88337 14.2376 8.16973 13.481C7.4561 12.7247 7.05559 11.6989 7.05626 10.6298C7.05559 9.56099 7.45643 8.53556 8.17007 7.77957C8.8837 7.02325 9.85178 6.59807 10.8612 6.5974C11.8713 6.59807 12.8394 7.02325 13.553 7.77957C14.2667 8.53556 14.6672 9.56099 14.6668 10.6301C14.6675 11.6989 14.2667 12.7243 13.553 13.4813C12.8394 14.2376 11.8713 14.6628 10.8615 14.6635ZM10.8615 13.8732C11.6729 13.8718 12.4506 13.5297 13.0235 12.9211C13.5964 12.3132 13.9172 11.4888 13.9162 10.6301C13.9182 8.84169 12.5506 7.3904 10.8615 7.38774C9.17216 7.3904 7.80458 8.84169 7.80691 10.6301C7.80558 11.4888 8.12672 12.3132 8.69963 12.9211C9.27254 13.5293 10.0502 13.8715 10.8615 13.8732ZM10.5377 12.0774V9.20751C10.5377 9.00142 10.7452 8.8807 10.8962 8.99975L12.7163 10.4347C12.777 10.4847 12.8127 10.5614 12.8127 10.6428C12.813 10.6825 12.8044 10.7218 12.7877 10.7578C12.771 10.7939 12.7465 10.8258 12.716 10.8512L10.8962 12.2862C10.7462 12.4052 10.5377 12.2845 10.5377 12.0784V12.0774ZM9.62802 9.20751C9.62802 9.06645 9.72973 8.95273 9.85545 8.95273C9.9815 8.95273 10.0829 9.06645 10.0829 9.20751V12.1668C10.0829 12.3078 9.98084 12.4215 9.85545 12.4215C9.82438 12.4204 9.79387 12.413 9.76577 12.3997C9.73767 12.3864 9.71259 12.3675 9.69205 12.3442C9.64891 12.2953 9.62602 12.2319 9.62802 12.1668V9.20751Z" fill=""/>
</svg>
