<svg width="15" height="15" viewBox="0 0 15 15" fill="" xmlns="http://www.w3.org/2000/svg">
<path d="M6.53401 9.27822H3.03401V4.32222H9.83101V5.51922C9.83101 5.51922 10.797 5.46322 11.287 5.63822V4.35022C11.287 4.35022 11.259 2.80322 9.80301 2.80322H3.12501C3.12501 2.83122 1.66901 2.95022 1.66901 4.43422V9.18722C1.66901 9.18722 1.57801 10.7622 3.09701 10.7622C4.61601 10.7622 5.42801 10.7902 5.42801 10.7902C5.42801 10.7902 5.57501 11.2592 4.52501 11.4902C3.41901 11.6932 2.42501 11.6932 2.27801 12.4562H8.17201C8.17201 12.4562 6.45001 11.2032 6.53401 9.27822Z" fill=""/>
<path d="M10.4191 6.21924C8.69712 6.21924 7.29712 7.61924 7.29712 9.34124C7.29712 11.0632 8.69712 12.4632 10.4191 12.4632C12.1411 12.4632 13.5411 11.0632 13.5411 9.34124C13.5411 7.61924 12.1341 6.21924 10.4191 6.21924ZM9.92212 6.97524C10.0691 6.94724 10.2441 6.91924 10.3911 6.91924C10.5661 6.91924 10.7411 6.94724 10.9161 6.97524L10.8881 7.00324C11.0631 7.50024 11.1821 7.96924 11.2381 8.43124C10.6221 8.51524 10.0691 8.48724 9.63512 8.43124C9.69112 7.96224 9.81012 7.50024 9.98512 7.00324L9.92212 6.97524ZM8.02512 9.80324C7.99712 9.65624 7.96912 9.50924 7.96912 9.33424C7.96912 9.06824 8.02512 8.80924 8.11612 8.55024C8.38212 8.69724 8.66912 8.78124 8.93512 8.87224C8.90712 9.25024 8.90712 9.62824 8.96312 10.0692C8.37512 9.95024 8.02512 9.80324 8.02512 9.80324ZM8.31912 10.5032C8.58512 10.5872 8.84412 10.6782 9.07512 10.7342C9.13112 10.9652 9.19412 11.2032 9.27812 11.4622C8.87212 11.2592 8.52212 10.9162 8.31912 10.5032ZM9.01912 8.28424C8.66912 8.20024 8.43812 8.08124 8.37512 8.05324C8.60612 7.67524 8.92812 7.38124 9.30612 7.17824C9.19412 7.47224 9.07512 7.85024 9.01912 8.28424ZM10.8811 11.7002C10.7341 11.7282 10.5591 11.7562 10.4121 11.7562C10.2651 11.7562 10.1181 11.7282 9.97812 11.7282C9.97812 11.7002 9.83112 11.3782 9.71212 10.8532C10.2371 10.9092 10.7061 10.9092 11.1401 10.8532C11.0281 11.3222 10.9091 11.6092 10.8811 11.7002ZM11.2311 10.1812C10.6151 10.2722 10.0621 10.2372 9.60012 10.1812C9.57212 9.83124 9.54412 9.45324 9.57212 9.04724C10.2161 9.16624 10.7971 9.13124 11.2941 9.04724C11.2941 9.45324 11.2941 9.83124 11.2311 10.1812ZM12.4561 8.08124C12.2531 8.17224 12.0501 8.22824 11.8401 8.28424C11.7491 7.85024 11.6651 7.50024 11.5741 7.23424C11.9311 7.44424 12.2531 7.73124 12.4561 8.08124ZM11.5811 11.4342C11.6651 11.2032 11.7281 10.9652 11.7841 10.7342C12.0781 10.6782 12.3091 10.5872 12.5121 10.5032C12.3161 10.9162 11.9941 11.2312 11.5811 11.4342ZM12.7781 9.80324C12.4841 9.92224 12.1971 10.0062 11.9031 10.0692C11.9591 9.63524 11.9591 9.25024 11.9311 8.87224C12.3651 8.72524 12.6591 8.57824 12.7151 8.55024C12.7991 8.78124 12.8621 9.04724 12.8621 9.33424C12.8341 9.50924 12.8061 9.65624 12.7781 9.80324Z" fill=""/>
</svg>
