<svg width="15" height="15" viewBox="0 0 15 15" fill="" xmlns="http://www.w3.org/2000/svg">
<path d="M7.50008 1.6665C4.27775 1.6665 1.66675 4.27896 1.66675 7.501C1.66675 10.7228 4.27775 13.3332 7.50008 13.3332C10.7224 13.3332 13.3334 10.7207 13.3334 7.501C13.3334 4.2813 10.7224 1.6665 7.50008 1.6665ZM7.7305 7.27059L7.72817 4.82438C8.08939 4.85511 8.44064 4.95873 8.76072 5.12897C9.08079 5.29921 9.36305 5.53254 9.59046 5.81488L7.7305 7.2703V7.27059ZM7.26966 7.27059H4.82316C4.87701 6.63981 5.15207 6.04837 5.59974 5.60075C6.04741 5.15313 6.63889 4.87815 7.26966 4.82438V7.27059ZM7.26966 7.72909V10.1753C6.63889 10.1215 6.04741 9.84654 5.59974 9.39892C5.15207 8.9513 4.87701 8.35986 4.82316 7.72909H7.26966ZM7.7305 7.72909H10.177C10.1232 8.35986 9.8481 8.9513 9.40043 9.39892C8.95275 9.84654 8.36128 10.1215 7.7305 10.1753V7.72909ZM9.98975 5.50192C9.71515 5.15935 9.37278 4.87718 8.98407 4.67306C8.59536 4.46895 8.16869 4.34729 7.73079 4.31571V3.41884C8.30526 3.45075 8.86651 3.60365 9.37778 3.86753C9.88905 4.13141 10.3388 4.50032 10.6976 4.95009L9.98975 5.50221V5.50192ZM7.26937 4.31775C5.69029 4.42975 4.42854 5.6915 4.31654 7.27059H3.41733C3.53341 5.19655 5.19504 3.53317 7.26937 3.41913V4.31805V4.31775ZM4.31654 7.72938C4.42825 9.30846 5.69029 10.5702 7.26966 10.6819V11.5811C5.19504 11.4665 3.53137 9.80313 3.41675 7.72909H4.31654V7.72938ZM7.73079 10.6843C9.31017 10.5725 10.5722 9.3108 10.6839 7.73171H11.5834C11.4697 9.80546 9.80542 11.4688 7.73079 11.5832V10.684V10.6843ZM11.6721 4.18592L11.0922 4.64005C10.6864 4.12968 10.1765 3.71165 9.59638 3.41382C9.01631 3.11599 8.37943 2.94519 7.72817 2.9128V2.1778C8.49112 2.20991 9.23822 2.40585 9.91874 2.7523C10.5993 3.09875 11.1972 3.58759 11.6721 4.18563V4.18592ZM7.26966 2.1775V2.91192C4.91679 3.02859 3.02708 4.91567 2.91304 7.27059H2.17571C2.29441 4.512 4.5105 2.29446 7.26966 2.17809L7.26996 2.1778L7.26966 2.1775ZM2.17571 7.72909H2.91304C3.02971 10.0837 4.91679 11.9711 7.272 12.0872V12.8222C4.51079 12.7055 2.29471 10.4903 2.17571 7.72909ZM7.7305 12.8219V12.0878C10.0857 11.9711 11.9731 10.0843 12.0895 7.72938H12.8245C12.7057 10.4906 10.4897 12.7058 7.7305 12.8222V12.8219Z" fill=""/>
</svg>
