<svg width="15" height="15" viewBox="0 0 15 15" fill="" xmlns="http://www.w3.org/2000/svg">
<path d="M1.88086 11.8285L3.5666 10.1428V11.4334H7.5C9.67246 11.4334 11.4334 9.67246 11.4334 7.5C11.4334 7.10352 11.3746 6.7207 11.2652 6.35977L12.5641 5.06094C12.9195 5.79922 13.1191 6.62637 13.1191 7.5C13.1191 10.6035 10.6035 13.1191 7.5 13.1191H1.88086V11.8285ZM1.88086 7.26484V1.88086H7.5C8.5541 1.88086 9.54121 2.1707 10.3848 2.67656L9.13789 3.92344C8.63887 3.69512 8.08516 3.5666 7.5 3.5666H3.5666V5.5791L1.88086 7.26484ZM7.36465 9.07363L7.36191 9.07637L5.44785 7.1623L1.88086 10.7279V8.35996L5.16348 5.07871L5.16484 5.08008L5.45469 4.79023L7.43027 6.76582L11.0533 3.15234C11.4895 3.50508 11.8736 3.9207 12.1881 4.38691L7.42617 9.13516L7.36465 9.07363Z" fill=""/>
</svg>
