<svg width="15" height="15" viewBox="0 0 15 15" fill="" xmlns="http://www.w3.org/2000/svg">
<g clip-path="url(#clip0_623_13056)">
<path d="M14.3744 5.72191C13.9614 4.45491 12.5964 3.75491 11.3294 4.16791C10.7134 4.37091 10.2164 4.79091 9.92239 5.37191C9.69839 5.81291 9.6144 6.29591 9.67739 6.77191L8.24939 7.23391C8.1024 7.28291 7.95539 7.17091 7.95539 7.01691V5.51891C9.12439 5.29491 9.99939 4.22391 9.90839 2.97091C9.8244 1.78091 8.8584 0.82191 7.6684 0.73791C6.2544 0.63991 5.07839 1.75991 5.07839 3.15291C5.07839 4.32891 5.9254 5.31591 7.03839 5.52591V7.02391C7.03839 7.17791 6.89139 7.28291 6.74439 7.24091L5.31639 6.77891C5.3794 6.30291 5.29539 5.81991 5.07139 5.37891C4.77739 4.80491 4.2804 4.37791 3.6644 4.17491C2.3974 3.76191 1.0324 4.46191 0.619395 5.72891C0.388395 6.44291 0.493395 7.21291 0.927395 7.84291C1.1724 8.20691 1.5154 8.49391 1.9144 8.66891C2.2434 8.81591 2.5864 8.89291 2.92239 8.89291C3.3004 8.89291 3.67139 8.80191 4.01439 8.62691C4.45539 8.40291 4.80539 8.05991 5.03639 7.63991L6.46439 8.10191C6.61139 8.15091 6.66739 8.32591 6.57639 8.44491L5.69439 9.65591C4.66539 9.17291 3.4054 9.46691 2.71239 10.4259C1.9284 11.5039 2.1664 13.0159 3.2444 13.7999C3.6714 14.1079 4.16839 14.2619 4.66539 14.2619C5.41439 14.2619 6.14939 13.9189 6.62539 13.2679C7.31839 12.3159 7.21339 11.0209 6.43639 10.1949L7.31839 8.98391C7.40939 8.85791 7.5914 8.85791 7.68239 8.98391L8.56439 10.1949C7.78739 11.0209 7.68239 12.3159 8.37539 13.2679C8.7534 13.7929 9.3134 14.1359 9.95039 14.2339C10.0764 14.2549 10.2094 14.2619 10.3354 14.2619C10.8744 14.2619 11.4064 14.0799 11.8404 13.7369C12.7924 12.9809 13.0304 11.5949 12.3794 10.5659C11.7144 9.50191 10.3774 9.15191 9.29939 9.66291L8.4174 8.44491C8.3264 8.31891 8.38239 8.14391 8.5294 8.10191L9.95739 7.63991C10.1884 8.05991 10.5384 8.40291 10.9794 8.62691C11.3224 8.80191 11.7004 8.89291 12.0714 8.89291C12.3234 8.89291 12.5754 8.85091 12.8204 8.77391C14.0944 8.36091 14.7874 6.99591 14.3744 5.72191ZM4.35739 6.93991C4.23139 7.33191 3.9514 7.65391 3.5734 7.83591C3.2234 8.00391 2.8104 8.03191 2.4464 7.90591C1.9704 7.74491 1.6064 7.36691 1.4664 6.86991C1.4174 6.70191 1.4034 6.51991 1.4174 6.34491C1.5014 5.51891 2.1804 4.97291 2.92239 4.97291C3.1884 4.97291 3.4614 5.04291 3.7204 5.19691C3.8674 5.28791 4.00039 5.40691 4.10539 5.53991C4.42739 5.94591 4.51139 6.46391 4.35739 6.93991ZM6.00239 3.29991C5.90439 2.34791 6.70239 1.54991 7.65439 1.64791C8.36139 1.71791 8.9284 2.29191 8.99839 2.99191C9.09639 3.94391 8.29839 4.74191 7.34639 4.64391C6.63939 4.58091 6.07239 4.00691 6.00239 3.29991ZM5.89039 12.7359C5.32339 13.5199 4.1404 13.5899 3.4824 12.7779C3.4054 12.6799 3.3354 12.5749 3.2864 12.4559C3.0694 11.9449 3.1394 11.3919 3.4474 10.9579C3.9374 10.2859 4.88239 10.1389 5.55439 10.6219C5.88339 10.8599 6.09339 11.2099 6.15639 11.6089C6.22639 12.0149 6.12839 12.4139 5.89039 12.7359ZM10.5664 10.3629C11.0284 10.4329 11.4274 10.7129 11.6584 11.1399C11.7914 11.3779 11.8544 11.6579 11.8334 11.9309C11.8054 12.5049 11.4624 12.9949 10.9304 13.2399C10.7694 13.3099 10.5944 13.3519 10.4124 13.3659C9.8314 13.3939 9.30639 13.1069 9.01939 12.6099C8.8794 12.3719 8.80939 12.0989 8.81639 11.8259C8.83039 11.3429 9.05439 10.9159 9.43939 10.6359C9.69839 10.4469 10.0064 10.3489 10.3214 10.3489C10.4054 10.3419 10.4824 10.3489 10.5664 10.3629ZM12.5404 7.90591C12.0924 8.05291 11.6094 7.98291 11.2104 7.70991C10.9864 7.55591 10.8044 7.33891 10.6924 7.08691C10.4754 6.58991 10.5314 6.02991 10.8464 5.58891C10.9794 5.40691 11.1474 5.25291 11.3504 5.14791C11.5814 5.02191 11.8264 4.96591 12.0644 4.96591C12.7014 4.96591 13.2894 5.37191 13.4994 6.00891C13.7654 6.79991 13.3314 7.64691 12.5404 7.90591Z" fill=""/>
</g>
<defs>
<clipPath id="clip0_623_13056">
<rect width="14" height="14" fill="" transform="translate(0.5 0.5)"/>
</clipPath>
</defs>
</svg>
