<svg width="19" height="19" viewBox="0 0 19 19" fill="" xmlns="http://www.w3.org/2000/svg">
<path d="M14.702 14.3869L14.315 13.8109L15.476 13.1359V6.19693L12.002 4.17193L12.335 3.59593L16.151 5.80993V13.5229L14.702 14.3869ZM3.425 10.3819H2.75V5.85493L9.59 2.00293L11.129 2.86693L10.787 3.49693L9.581 2.77693L3.425 6.24193V10.3819ZM9.446 17.3749L2.75 13.5679V11.6869H3.425V13.1809L9.446 16.6009L13.352 14.3869L13.694 14.9629L9.446 17.3749ZM9.014 6.48493L7.52 5.61193V5.08093L9.5 3.91993L11.426 5.08093V5.61193L9.977 6.47593L9.932 7.00693L9.5 6.71893L9.014 7.00693V6.48493ZM12.056 9.94993V8.22193L10.562 7.35793V6.82693L12.488 5.71993L14.468 6.82693V9.09493L12.488 10.2019L12.056 9.94993ZM7.52 14.2879V12.0739L7.952 11.7859L9.446 12.6499L10.985 11.7859L11.417 12.0289V14.2969L9.437 15.4579L7.52 14.2879ZM12.056 13.4239V11.6869L11.57 11.3989L12.056 11.1559V10.6249L12.488 10.9129L13.982 10.0489L14.468 10.2919V12.5599L12.488 13.6669L12.056 13.4239ZM7.52 10.8229V8.55493L9.5 7.44793L11.426 8.55493V10.8229L9.446 11.9299L7.52 10.8229ZM4.433 12.5509L4.478 10.2829L4.91 10.0399L6.404 10.9039L6.89 10.6159V11.1469L7.376 11.4349L6.89 11.6779V13.4149L6.404 13.6579L4.433 12.5509ZM4.433 9.08593L4.478 6.81793L6.458 5.71093L8.384 6.81793V7.34893L6.89 8.21293V9.89593L6.404 10.1839L4.433 9.08593Z" fill=""/>
</svg>
