<svg width="15" height="15" viewBox="0 0 15 15" fill="" xmlns="http://www.w3.org/2000/svg">
<path d="M13.394 8.89995C13.394 9.77495 12.694 10.4749 11.819 10.4749H10.391L11.119 9.39695H11.847C12.113 9.39695 12.344 9.16595 12.344 8.89995V7.23395C12.344 6.96795 12.113 6.73695 11.847 6.73695H2.95C2.684 6.73695 2.453 6.96795 2.453 7.23395V8.89995C2.453 9.16595 2.684 9.39695 2.95 9.39695H4.756V10.4749H2.95C2.075 10.4749 1.375 9.77495 1.375 8.89995V7.23395C1.375 6.35895 2.075 5.65895 2.95 5.65895H5.4V4.84695H4.406L6.359 2.54395V5.69395H8.403V2.57195H9.334V5.66595H11.812C12.687 5.66595 13.387 6.36595 13.387 7.24095L13.394 8.89995ZM8.403 12.2809V7.38095H9.334V9.36195H10.328L8.403 12.2809ZM7.031 10.4749H7.759V9.39695H7.031V10.4749ZM5.4 12.0219H6.394V7.38095H5.4V12.0219Z" fill=""/>
</svg>
