<svg width="15" height="15" viewBox="0 0 15 15" fill="" xmlns="http://www.w3.org/2000/svg">
<path d="M11.9871 2.69789L11.5041 2.52289C11.4271 2.19389 11.1401 1.96289 10.7971 1.96289C10.4051 1.96289 10.0831 2.28489 10.0831 2.67689V2.68389C10.0831 3.08289 10.4051 3.40489 10.8041 3.40489C10.9931 3.40489 11.1611 3.33489 11.2871 3.21589L11.7421 3.37689C12.0501 3.48889 12.3161 3.90889 12.3161 4.26589V10.6569C12.3161 11.0139 12.0501 11.4339 11.7421 11.5389L11.3291 11.6789C11.1961 11.5319 11.0001 11.4409 10.7971 11.4409C10.4051 11.4409 10.0831 11.7629 10.0831 12.1549V12.1619C10.0831 12.5609 10.4051 12.8829 10.8041 12.8829C11.1121 12.8829 11.3851 12.6869 11.4831 12.3929L11.9801 12.2179C12.5751 12.0079 13.0371 11.3219 13.0371 10.6569V4.27289C13.0301 3.59389 12.5751 2.90789 11.9871 2.69789ZM4.32905 11.4479C4.09805 11.4479 3.89505 11.5599 3.76905 11.7279L3.24405 11.5389C2.93605 11.4269 2.68405 11.0559 2.68405 10.7339V4.18889C2.68405 3.86689 2.94305 3.48189 3.24405 3.37689L3.81105 3.16689C3.94405 3.30689 4.12605 3.39789 4.33605 3.39789C4.72805 3.39789 5.05005 3.07589 5.05005 2.68389V2.67689C5.05005 2.28489 4.72805 1.96289 4.33605 1.96289H4.32905C4.00705 1.96289 3.74105 2.17289 3.64305 2.46689L2.99205 2.70489C2.41105 2.91489 1.95605 3.57289 1.95605 4.19589V10.7409C1.95605 11.3639 2.41105 12.0219 2.99905 12.2249L3.67105 12.4629C3.78305 12.7289 4.04205 12.8969 4.32905 12.8969C4.72105 12.8969 5.04305 12.5749 5.04305 12.1829V12.1759C5.04305 11.7629 4.72805 11.4479 4.32905 11.4479Z" fill=""/>
<path d="M8.82996 7.33897C8.54996 7.33897 8.32596 7.11497 8.32596 6.84197C8.32596 6.56197 8.54996 6.33797 8.82296 6.33797C9.10296 6.33797 9.32696 6.56197 9.32696 6.83497C9.32696 7.10797 9.10296 7.33897 8.82996 7.33897ZM7.46496 9.73297C6.54796 9.73297 5.79896 8.92797 5.79896 8.06697H9.13096C9.13096 8.92797 8.38196 9.73297 7.46496 9.73297ZM5.58896 6.83497C5.58896 6.55497 5.81296 6.33097 6.09296 6.33097C6.37296 6.33097 6.59696 6.55497 6.59696 6.83497C6.59696 7.11497 6.37296 7.33897 6.09996 7.33897C5.81996 7.33897 5.59596 7.11497 5.58896 6.83497ZM7.46496 4.16797C5.67996 4.16797 4.23096 5.61697 4.23096 7.40197C4.23096 9.18697 5.67996 10.636 7.46496 10.636C9.24996 10.636 10.699 9.18697 10.699 7.40197C10.699 5.61697 9.24996 4.17497 7.46496 4.16797Z" fill=""/>
</svg>
