<svg width="15" height="15" viewBox="0 0 15 15" fill="" xmlns="http://www.w3.org/2000/svg">
<path d="M12.7501 10.8671V10.8601L12.7151 10.8251L12.6101 10.7201C12.0431 10.1461 11.9171 9.98505 11.9171 9.98505C12.4071 9.16606 12.6591 8.23505 12.6661 7.28305C12.6661 4.34305 10.2721 1.95605 7.31105 1.95605C4.35705 1.95605 1.95605 4.34305 1.95605 7.28305C1.95605 10.2231 4.35705 12.6101 7.31105 12.6101C8.30505 12.6101 9.22905 12.3371 10.0271 11.8681L10.7621 12.5821C10.7971 12.6171 10.8251 12.6521 10.8601 12.6801L10.9021 12.7221L10.9161 12.7291C11.4901 13.1771 12.3161 13.0721 12.7571 12.5051C13.1421 12.0221 13.1351 11.3431 12.7501 10.8671ZM7.31105 11.2801C5.09205 11.2801 3.30005 9.48805 3.30005 7.28305C3.30005 5.07805 5.09905 3.28605 7.31105 3.28605C9.53005 3.28605 11.3221 5.07105 11.3221 7.28305C11.3221 9.49505 9.53005 11.2801 7.31105 11.2801ZM8.91405 5.61705H5.79905C5.57505 5.61705 5.36505 5.78505 5.36505 5.96705C5.36505 6.14906 5.54705 6.29605 5.77105 6.29605L8.92105 6.28905C9.14505 6.28905 9.32705 6.17705 9.32705 5.99505C9.32705 5.80605 9.13805 5.61705 8.91405 5.61705ZM8.91405 8.39605H5.68705C5.49805 8.39605 5.34405 8.59205 5.34405 8.73906C5.34405 8.88605 5.49805 9.06106 5.68705 9.06106H8.91405C9.10306 9.06106 9.29906 8.91405 9.29906 8.76705C9.30606 8.62005 9.10306 8.40305 8.91405 8.39605ZM8.91405 7.06605L5.75705 7.05905C5.53305 7.05905 5.35105 7.20605 5.35105 7.38805C5.35105 7.57006 5.57505 7.73805 5.79905 7.73805H8.90705C9.13105 7.73805 9.31305 7.59105 9.31305 7.40905C9.31305 7.22705 9.13805 7.06605 8.91405 7.06605Z" fill=""/>
</svg>
