<svg width="15" height="15" viewBox="0 0 15 15" fill="" xmlns="http://www.w3.org/2000/svg">
<path d="M3.53098 6.04412C3.32798 6.54112 3.20898 7.09412 3.20898 7.64712C3.20898 8.11612 3.29298 8.57812 3.43998 8.99112C3.70598 8.55712 4.05598 8.06012 4.48998 7.53512C4.43398 7.41612 4.37098 7.26912 4.37098 7.12912C4.37098 7.01012 4.39898 6.92612 4.42698 6.83512C4.02798 6.53412 3.73398 6.27512 3.53098 6.04412ZM5.04998 11.1471C5.19698 11.0281 5.31598 10.9161 5.45598 10.8251C6.65298 9.92212 7.73099 9.39712 8.57799 9.10312C8.57799 9.04712 8.54998 8.98412 8.54998 8.92812V8.83712C8.25598 8.74612 7.93399 8.66212 7.64699 8.54312C6.89099 8.27712 6.24698 7.96212 5.69398 7.66812C5.54698 7.81512 5.34398 7.89912 5.14098 7.89912C5.02198 7.89912 4.93798 7.87112 4.84698 7.84312C4.29398 8.48712 3.91598 9.09612 3.64998 9.56512C3.99998 10.2161 4.46898 10.7341 5.04998 11.1471ZM7.82198 8.11612C8.14398 8.23512 8.46599 8.31912 8.78799 8.41012C8.87198 8.32612 8.96299 8.26312 9.05399 8.23512C8.96299 7.91312 8.85099 7.59112 8.70399 7.26912C8.50099 6.80012 8.26998 6.36612 8.03198 5.98812C7.94798 6.01612 7.88498 6.01612 7.80098 6.01612C7.62598 6.01612 7.45098 5.96012 7.30399 5.84112C6.98198 6.04412 6.65998 6.24712 6.30998 6.51312L5.87598 6.86312C5.90398 6.94712 5.93198 7.06612 5.93198 7.15712V7.27612C6.44998 7.52812 7.09398 7.85012 7.82198 8.11612ZM11.903 7.64712C11.903 6.42212 11.378 5.28812 10.503 4.52512C10.069 4.60912 9.39699 4.79112 8.57799 5.13412V5.21812C8.57799 5.39312 8.52199 5.54012 8.43098 5.68712C8.69699 6.09312 8.92798 6.56212 9.15899 7.08712C9.30598 7.46512 9.45298 7.84312 9.56498 8.19312C9.79598 8.24912 9.99898 8.42412 10.118 8.66212C10.293 8.69012 10.468 8.69012 10.643 8.69012C11.077 8.71812 11.49 8.69012 11.812 8.69012C11.847 8.31912 11.903 7.99712 11.903 7.64712ZM7.55598 4.46912C7.63999 4.44112 7.70298 4.44112 7.78698 4.44112C8.01798 4.44112 8.22098 4.52512 8.36798 4.70712C9.01198 4.41312 9.56498 4.23812 9.99898 4.12612C9.29899 3.65712 8.45198 3.37012 7.54898 3.37012C7.22698 3.37012 6.87698 3.39812 6.58298 3.48912C6.85598 3.73412 7.20599 4.05612 7.55598 4.46912ZM9.54399 11.4341C9.57199 11.0001 9.54399 10.4121 9.39699 9.68412H9.34099C9.13799 9.68412 8.96299 9.62812 8.84399 9.50912C8.02499 9.80312 6.94698 10.2931 5.77798 11.2031C5.69398 11.2591 5.60298 11.3501 5.48398 11.4061C6.09998 11.7281 6.79998 11.9031 7.52798 11.9031C8.25598 11.9311 8.95599 11.7561 9.54399 11.4341ZM3.76898 5.57512C3.97198 5.80612 4.29398 6.12812 4.76298 6.47812C4.88198 6.42212 5.02898 6.35912 5.16898 6.35912C5.31598 6.35912 5.46298 6.38712 5.57498 6.47812L6.00898 6.12812C6.35898 5.86212 6.70898 5.63112 7.03098 5.42812C7.00298 5.37212 7.00299 5.30912 7.00299 5.22512C7.00299 5.05012 7.05898 4.90312 7.14998 4.75612C6.71598 4.26612 6.33098 3.88112 6.01598 3.65012C5.04998 4.00012 4.26598 4.70012 3.76898 5.57512ZM10.531 9.15912C10.447 9.15912 10.3 9.15912 10.097 9.21512C10.041 9.33412 9.97798 9.41812 9.89399 9.50912C10.013 10.1531 10.069 10.7061 10.069 11.1401C10.769 10.6431 11.322 9.97112 11.644 9.15912H10.531Z" fill=""/>
<path d="M9.54389 1.69705C9.42489 1.34705 9.10989 1.08105 8.69689 1.08105C8.22789 1.08105 7.82189 1.45905 7.82189 1.92805C7.82189 2.39705 8.19989 2.77505 8.69689 2.77505C8.92789 2.77505 9.16589 2.69105 9.31289 2.50905C11.4969 3.26505 13.0439 5.28105 13.0439 7.64005C13.0439 8.22105 12.9599 8.78105 12.7779 9.30606L13.5339 9.74006C13.7649 9.09606 13.9119 8.36805 13.9119 7.64005C13.9189 4.87505 12.0779 2.51605 9.54389 1.69705ZM12.0219 10.6221C11.5529 10.6221 11.1469 11.0001 11.1469 11.4691C11.1469 11.5601 11.1749 11.6161 11.1749 11.7001C10.2089 12.5471 8.92789 13.0721 7.52789 13.0721C5.92489 13.0721 4.46189 12.3721 3.44689 11.2941L2.66289 11.7281C3.83189 13.0721 5.58189 13.9121 7.50689 13.9121C9.13789 13.9121 10.6569 13.2961 11.7629 12.2811C11.8189 12.3091 11.8819 12.3091 11.9659 12.3091C12.4349 12.3091 12.8409 11.9311 12.8409 11.4621C12.8409 10.9931 12.4909 10.6221 12.0219 10.6221ZM2.16589 8.69705C2.10989 8.34705 2.04689 8.02505 2.04689 7.64705C2.04689 5.05006 3.91589 2.89405 6.39389 2.36905V1.49405C3.41889 2.01905 1.17189 4.58105 1.17189 7.64705C1.17189 8.08105 1.22789 8.52206 1.31889 8.92805C1.17189 9.07506 1.08789 9.27805 1.08789 9.50905C1.08789 9.97806 1.46589 10.3561 1.96289 10.3561C2.43189 10.3561 2.83789 9.97806 2.83789 9.50905C2.83089 9.10306 2.54389 8.78105 2.16589 8.69705Z" fill=""/>
</svg>
