<svg width="11" height="12" viewBox="0 0 11 12" fill="" xmlns="http://www.w3.org/2000/svg">
<path d="M5.64575 0.8125L5.76242 0.813083C6.18066 0.816333 6.59846 0.84067 7.01425 0.886L7.21317 0.909333L7.42375 0.9385L7.63054 0.971458L7.73409 0.989542L7.93767 1.02833C9.64946 1.37454 10.8488 2.11508 10.8943 3.08837L10.8958 3.14583V9.27083C10.8958 10.2724 9.683 11.0354 7.93767 11.3883L7.73409 11.4271L7.63054 11.4452L7.42375 11.4779L7.21317 11.507C6.71734 11.5706 6.19088 11.6042 5.64575 11.6042C5.10063 11.6042 4.57417 11.5706 4.07834 11.507L3.86775 11.4779L3.66096 11.4452C1.78671 11.1282 0.44446 10.3585 0.39721 9.32742L0.395752 9.27083V3.14583L0.39721 3.08837C0.44271 2.11508 1.64204 1.37454 3.35384 1.02833L3.55742 0.989542L3.66096 0.971458L3.86775 0.938792L4.07834 0.909625C4.52125 0.853525 4.9669 0.821782 5.41329 0.814542L5.64575 0.8125ZM7.63054 8.23687L7.42375 8.26954L7.21317 8.29871C6.71734 8.36229 6.19088 8.39583 5.64575 8.39583C5.10063 8.39583 4.57417 8.36229 4.07834 8.29871L3.86775 8.26954L3.66096 8.23687C2.68359 8.0715 1.85059 7.78304 1.27075 7.39863V9.27083C1.27075 9.55725 1.60121 9.85563 2.16034 10.1073L2.29363 10.1645C2.49925 10.2491 2.73113 10.3275 2.98546 10.3973L3.15842 10.4425C3.33429 10.4862 3.52009 10.5265 3.71346 10.5615L3.91004 10.595L4.11159 10.625C4.24779 10.644 4.38721 10.6606 4.52954 10.6746L4.74509 10.6939L4.96471 10.709L5.18842 10.7201C5.49319 10.7322 5.79832 10.7322 6.10308 10.7201L6.32679 10.709L6.54642 10.6939L6.76225 10.6746C6.90429 10.6606 7.04371 10.644 7.17992 10.625L7.38146 10.595L7.57804 10.5615C7.77171 10.5265 7.95721 10.4865 8.13309 10.4425L8.30604 10.3973C8.56038 10.3273 8.79225 10.2491 8.99788 10.1645L9.13117 10.1073C9.66871 9.86525 9.99508 9.58029 10.0193 9.30379L10.0208 9.27083V7.39833C9.44121 7.78304 8.60821 8.0715 7.63054 8.23687ZM10.0208 4.48167C9.46979 4.84713 8.69075 5.12567 7.77579 5.29454L7.62996 5.32021L7.42346 5.35288L7.21288 5.38204C6.71704 5.44563 6.19059 5.47917 5.64546 5.47917C5.17821 5.47917 4.72467 5.45467 4.29213 5.40742L4.07804 5.38204L3.86746 5.35288L3.66067 5.32021C2.68329 5.15483 1.85029 4.86637 1.27046 4.48196V6.0625C1.27046 6.34892 1.60092 6.64729 2.16004 6.899L2.29334 6.95617C2.49896 7.04075 2.73084 7.11921 2.98517 7.18892L3.15813 7.23412C3.334 7.27787 3.51979 7.31813 3.71317 7.35313L3.90975 7.38667L4.11129 7.41671C4.2475 7.43567 4.38692 7.45229 4.52925 7.46629L4.74479 7.48554L4.96442 7.50071L5.18813 7.51179C5.4929 7.52385 5.79802 7.52385 6.10279 7.51179L6.3265 7.50071L6.54613 7.48554L6.76196 7.46629C6.904 7.45229 7.04342 7.43567 7.17963 7.41671L7.38117 7.38667L7.57775 7.35313C7.77142 7.31813 7.95692 7.27817 8.13279 7.23412L8.30575 7.18892C8.56009 7.11892 8.79196 7.04075 8.99759 6.95617L9.13088 6.899C9.66842 6.65692 9.99479 6.37196 10.019 6.09546L10.0205 6.0625V4.48167H10.0208ZM5.64575 1.6875L5.53025 1.68808L5.35817 1.691L5.18842 1.69654L4.96471 1.70763L4.74509 1.72279L4.52925 1.74204C4.43446 1.75138 4.34113 1.76188 4.24896 1.77354L4.11188 1.79162L3.91004 1.82167L3.71346 1.85521C3.56821 1.88146 3.42763 1.91062 3.292 1.94183L3.15842 1.97392L2.98546 2.01942C2.77371 2.07775 2.57713 2.14192 2.39863 2.21046L2.29363 2.25217L2.16034 2.30933C1.60121 2.56104 1.27075 2.85942 1.27075 3.14583C1.27075 3.42 1.57321 3.70467 2.08888 3.94938L2.16034 3.98233L2.29363 4.0395C2.46484 4.11008 2.65442 4.17629 2.86034 4.23667L2.98575 4.27225L3.15842 4.31746C3.29025 4.35042 3.42763 4.38104 3.56967 4.40933L3.71346 4.43646L3.91004 4.47L4.11159 4.50004C4.20229 4.51288 4.29446 4.52425 4.38809 4.53504L4.52954 4.54962L4.74509 4.56888L4.96471 4.58404L5.18842 4.59512C5.44292 4.60519 5.69768 4.60684 5.95229 4.60008L6.10308 4.59512L6.32679 4.58404L6.54642 4.56888L6.76225 4.54962C6.85704 4.54029 6.95038 4.52979 7.04254 4.51813L7.17963 4.50004L7.38146 4.47L7.57804 4.43646C7.72329 4.41021 7.86388 4.38104 7.9995 4.34983L8.13309 4.31775L8.30604 4.27225C8.51779 4.21392 8.71438 4.14975 8.89288 4.08121L8.99788 4.0395L9.13117 3.98233C9.69029 3.73063 10.0208 3.43225 10.0208 3.14583C10.0208 2.87167 9.71829 2.587 9.20263 2.34229L9.13117 2.30933L8.99788 2.25217C8.8125 2.17672 8.62335 2.11091 8.43117 2.055L8.30575 2.01942L8.13309 1.97421C7.99678 1.9402 7.85965 1.90957 7.72184 1.88233L7.57804 1.85521L7.38146 1.82167L7.17992 1.79162C7.08791 1.77873 6.99574 1.76706 6.90342 1.75662L6.76196 1.74204L6.54642 1.72279L6.32679 1.70763L6.10308 1.69654C6.00304 1.69246 5.90183 1.68983 5.79975 1.68837L5.64575 1.6875Z" fill=""/>
</svg>
