<svg width="15" height="15" viewBox="0 0 15 15" fill="" xmlns="http://www.w3.org/2000/svg">
<path d="M10.5916 1.6665C11.2916 1.6665 11.875 2.24984 11.875 2.94984C11.875 3.53317 11.4958 4.029 10.9708 4.17484L10.5916 6.44984C10.9125 6.68317 11.1458 7.06234 11.1458 7.49984C11.1458 8.19984 10.5625 8.78317 9.86247 8.78317C9.33747 8.78317 8.8708 8.46234 8.66663 7.99567L7.26663 7.90817C7.09163 8.11234 6.8583 8.229 6.56663 8.229C6.0708 8.229 5.66247 7.82067 5.66247 7.32484C5.66247 6.97484 5.86663 6.654 6.1583 6.50817L6.27497 5.74984C6.12913 5.57484 6.01247 5.37067 6.01247 5.10817C6.01247 4.61234 6.4208 4.204 6.91663 4.204C7.41247 4.204 7.8208 4.61234 7.8208 5.10817C7.8208 5.45817 7.61663 5.779 7.32497 5.92484L7.2083 6.68317C7.23747 6.71234 7.26663 6.77067 7.2958 6.79984L8.6958 6.88734C8.8708 6.59567 9.1333 6.36234 9.45413 6.27484L9.8333 3.99984C9.6583 3.88317 9.51247 3.70817 9.3958 3.504H5.5458C5.39997 3.82484 5.1083 4.08734 4.7583 4.17484L4.08747 8.25817C4.55413 8.52067 4.87497 8.95817 4.9333 9.51234L9.9208 10.6207C10.2416 10.0665 10.825 9.71651 11.4958 9.71651C12.5166 9.71651 13.3041 10.5332 13.3041 11.5248C13.3041 12.5165 12.5166 13.3332 11.525 13.3332C10.5625 13.3332 9.77497 12.604 9.71663 11.6707L4.72913 10.5623C4.43747 11.029 3.91247 11.3207 3.32913 11.3207C2.42497 11.3207 1.6958 10.5915 1.6958 9.68734C1.6958 8.87067 2.27913 8.19984 3.03747 8.08317L3.7083 3.99984C3.32913 3.7665 3.12497 3.38734 3.12497 2.94984C3.12497 2.24984 3.7083 1.6665 4.4083 1.6665C4.90413 1.6665 5.3708 1.95817 5.57497 2.39567H9.45413C9.6583 1.95817 10.0958 1.6665 10.5916 1.6665Z" fill=""/>
</svg>
