<svg width="15" height="15" viewBox="0 0 15 15" fill="" xmlns="http://www.w3.org/2000/svg">
<g clip-path="url(#clip0_623_13071)">
<path d="M7.99225 0.989746C6.775 0.989746 5.57728 1.32823 4.5423 1.97917L5.14116 2.93604C7.66678 1.38031 10.9735 2.16794 12.5293 4.69356C14.085 7.21918 13.2974 10.5259 10.7717 12.0817C8.24611 13.6374 4.93937 12.8498 3.38364 10.3241C2.50488 8.89208 2.34214 7.12805 2.95402 5.56581L4.56183 6.16467L3.50081 2.81236L0.5 4.62847L1.91904 5.15572C0.623677 8.50803 2.29658 12.2769 5.6554 13.5723C9.01421 14.8677 12.7766 13.1948 14.072 9.83594C15.3673 6.47712 13.6879 2.71472 10.3291 1.42587C9.58704 1.13946 8.7929 0.989746 7.99225 0.989746Z" fill=""/>
<path d="M10.0037 4.73243C9.38532 4.47206 8.71486 4.34187 8.0444 4.35489C6.50819 4.35489 5.36255 4.94073 5.36255 5.46148C5.36255 5.98223 6.50168 6.56156 8.03789 6.56156C8.71486 6.57458 9.38532 6.44439 10.0037 6.18402C10.4398 5.97572 10.7197 5.70233 10.7197 5.45497C10.7197 5.20762 10.4529 4.92771 10.0037 4.73243ZM10.7523 9.43869V8.28002C10.583 8.42974 10.3878 8.55342 10.1795 8.64455C9.509 8.93747 8.77995 9.08718 8.0444 9.08067C7.09403 9.13275 6.15669 8.87237 5.37557 8.32559V9.49727C5.42764 10.0115 6.55376 10.5713 8.06392 10.5713C9.56758 10.5713 10.6872 10.005 10.7523 9.49076V9.43869Z" fill=""/>
<path d="M10.7522 7.42705V6.23584C10.583 6.38555 10.3877 6.50923 10.1794 6.60036C9.50892 6.89328 8.77987 7.043 8.04432 7.03649C7.09395 7.08856 6.15661 6.82819 5.37549 6.28141V7.45309C5.42756 7.96732 6.55368 8.52713 8.06384 8.52713C9.5675 8.52713 10.6871 7.96081 10.7522 7.44658V7.3945V7.42705Z" fill=""/>
</g>
<defs>
<clipPath id="clip0_623_13071">
<rect width="14" height="14" fill="" transform="translate(0.5 0.5)"/>
</clipPath>
</defs>
</svg>
