<svg width="16" height="17" viewBox="0 0 16 17" fill="" xmlns="http://www.w3.org/2000/svg">
<path d="M14.6288 2.56369L13.936 1.87084C13.9098 1.84469 13.8772 1.83325 13.8428 1.83325C13.8085 1.83325 13.7758 1.84632 13.7497 1.87084L12.5062 3.11438C11.9656 2.7481 11.3273 2.55282 10.6743 2.55389C9.83769 2.55389 9.00103 2.87253 8.36211 3.51146L6.69697 5.1766C6.67264 5.20117 6.65899 5.23435 6.65899 5.26892C6.65899 5.3035 6.67264 5.33668 6.69697 5.36125L11.1368 9.80107C11.1629 9.82722 11.1956 9.83865 11.2299 9.83865C11.2626 9.83865 11.2969 9.82558 11.3231 9.80107L12.9882 8.13593C14.1141 7.00841 14.2465 5.26484 13.3853 3.99352L14.6288 2.74998C14.6795 2.69768 14.6795 2.61435 14.6288 2.56369ZM12.2006 7.34994L11.2299 8.32058L8.17745 5.26811L9.1481 4.29746C9.55499 3.89057 10.0975 3.66507 10.6743 3.66507C11.2512 3.66507 11.7921 3.88894 12.2006 4.29746C12.6075 4.70435 12.833 5.24686 12.833 5.8237C12.833 6.40053 12.6075 6.94141 12.2006 7.34994ZM9.09254 9.06573C9.06797 9.0414 9.03479 9.02775 9.00022 9.02775C8.96564 9.02775 8.93246 9.0414 8.90789 9.06573L7.81959 10.154L6.34401 8.67845L7.43394 7.58851C7.4846 7.53786 7.4846 7.45452 7.43394 7.40386L6.83913 6.80905C6.81456 6.78472 6.78139 6.77108 6.74681 6.77108C6.71223 6.77108 6.67905 6.78472 6.65448 6.80905L5.56455 7.89899L4.86189 7.19633C4.84969 7.18412 4.83515 7.1745 4.81915 7.16804C4.80314 7.16159 4.786 7.15842 4.76874 7.15875C4.73606 7.15875 4.70175 7.17182 4.6756 7.19633L3.0121 8.86147C1.88621 9.98899 1.75385 11.7326 2.61501 13.0039L1.37147 14.2474C1.34714 14.272 1.3335 14.3052 1.3335 14.3398C1.3335 14.3743 1.34714 14.4075 1.37147 14.4321L2.06433 15.1249C2.09047 15.1511 2.12315 15.1625 2.15747 15.1625C2.19179 15.1625 2.22447 15.1494 2.25061 15.1249L3.49415 13.8814C4.04484 14.2556 4.68541 14.4419 5.32597 14.4419C6.16262 14.4419 6.99928 14.1232 7.6382 13.4843L9.30334 11.8192C9.354 11.7685 9.354 11.6852 9.30334 11.6345L8.60068 10.9319L9.69062 9.84192C9.74128 9.79127 9.74128 9.70793 9.69062 9.65727L9.09254 9.06573ZM6.85057 12.6999C6.65058 12.901 6.41272 13.0604 6.15075 13.1689C5.88878 13.2774 5.6079 13.333 5.32433 13.3323C4.7475 13.3323 4.20662 13.1085 3.79809 12.6999C3.59707 12.4999 3.43768 12.2621 3.32914 12.0001C3.22059 11.7382 3.16504 11.4573 3.1657 11.1737C3.1657 10.5969 3.38957 10.056 3.79809 9.64746L4.76874 8.67682L7.82122 11.7293L6.85057 12.6999Z" fill=""/>
</svg>
