<svg width="16" height="16" viewBox="0 0 16 16" fill="" xmlns="http://www.w3.org/2000/svg">
<g clip-path="url(#clip0_121_7579)">
<path fill-rule="evenodd" clip-rule="evenodd" d="M13.5568 1.11837C13.3942 0.970711 13.1825 0.8889 12.9629 0.888889H1.77215L1.68734 0.893012C1.46873 0.914096 1.26581 1.01585 1.11815 1.17842C0.970494 1.341 0.888682 1.55274 0.888672 1.77237V12.9631L0.892795 13.0479C0.913879 13.2665 1.01563 13.4694 1.17821 13.6171C1.34078 13.7647 1.55253 13.8465 1.77215 13.8466H6.78147L6.84979 13.8424C6.99317 13.8257 7.1254 13.7569 7.22139 13.6491C7.31737 13.5412 7.37042 13.4019 7.37045 13.2576L7.36633 13.1887C7.34945 13.0454 7.28058 12.9133 7.17277 12.8174C7.06497 12.7216 6.92573 12.6686 6.78147 12.6686H2.06664V2.06686H12.6684V7.36773L12.6725 7.43664C12.6902 7.58571 12.7642 7.72238 12.8793 7.81873C12.9944 7.91508 13.142 7.96384 13.2919 7.95504C13.4417 7.94625 13.5826 7.88056 13.6856 7.7714C13.7887 7.66224 13.8462 7.51785 13.8463 7.36773V1.77237L13.8422 1.68755C13.8211 1.46895 13.7194 1.26603 13.5568 1.11837ZM9.72345 7.95671H6.77852C6.62233 7.95669 6.47254 7.89462 6.36211 7.78417C6.25167 7.67372 6.18963 7.52392 6.18963 7.36773C6.18963 7.21153 6.25167 7.06174 6.36211 6.95128C6.47254 6.84083 6.62233 6.77876 6.77852 6.77874H9.72345C9.87964 6.77876 10.0294 6.84083 10.1399 6.95128C10.2503 7.06174 10.3123 7.21153 10.3123 7.36773C10.3123 7.52392 10.2503 7.67372 10.1399 7.78417C10.0294 7.89462 9.87964 7.95669 9.72345 7.95671ZM4.42258 7.95671H3.8336C3.6774 7.95669 3.52762 7.89462 3.41718 7.78417C3.30674 7.67372 3.2447 7.52392 3.2447 7.36773C3.2447 7.21153 3.30674 7.06174 3.41718 6.95128C3.52762 6.84083 3.6774 6.77876 3.8336 6.77874H4.42258C4.57878 6.77876 4.72856 6.84083 4.839 6.95128C4.94944 7.06174 5.01148 7.21153 5.01148 7.36773C5.01148 7.52392 4.94944 7.67372 4.839 7.78417C4.72856 7.89462 4.57878 7.95669 4.42258 7.95671ZM7.36751 10.3127H6.77852C6.62231 10.3127 6.4725 10.2506 6.36205 10.1401C6.25159 10.0297 6.18954 9.87988 6.18954 9.72367C6.18954 9.56746 6.25159 9.41765 6.36205 9.30719C6.4725 9.19674 6.62231 9.13468 6.77852 9.13468H7.36751C7.52372 9.13468 7.67353 9.19674 7.78398 9.30719C7.89444 9.41765 7.95649 9.56746 7.95649 9.72367C7.95649 9.87988 7.89444 10.0297 7.78398 10.1401C7.67353 10.2506 7.52372 10.3127 7.36751 10.3127ZM4.42258 10.3127H3.8336C3.67739 10.3127 3.52758 10.2506 3.41712 10.1401C3.30667 10.0297 3.24461 9.87988 3.24461 9.72367C3.24461 9.56746 3.30667 9.41765 3.41712 9.30719C3.52758 9.19674 3.67739 9.13468 3.8336 9.13468H4.42258C4.57879 9.13468 4.7286 9.19674 4.83906 9.30719C4.94951 9.41765 5.01157 9.56746 5.01157 9.72367C5.01157 9.87988 4.94951 10.0297 4.83906 10.1401C4.7286 10.2506 4.57879 10.3127 4.42258 10.3127ZM6.36205 5.42826C6.25159 5.3178 6.18954 5.16799 6.18954 5.01179C6.18954 4.85558 6.25159 4.70577 6.36205 4.59531C6.4725 4.48485 6.62231 4.4228 6.77852 4.4228H9.72345C9.87964 4.42282 10.0294 4.48489 10.1399 4.59534C10.2503 4.7058 10.3123 4.85559 10.3123 5.01179C10.3123 5.16798 10.2503 5.31778 10.1399 5.42823C10.0294 5.53868 9.87964 5.60075 9.72345 5.60077H6.77852C6.62231 5.60077 6.4725 5.53872 6.36205 5.42826ZM3.41712 5.42826C3.30667 5.3178 3.24461 5.16799 3.24461 5.01179C3.24461 4.85558 3.30667 4.70577 3.41712 4.59531C3.52758 4.48485 3.67739 4.4228 3.8336 4.4228H4.42258C4.49994 4.42279 4.57654 4.43801 4.64801 4.46761C4.71947 4.4972 4.78441 4.54059 4.83912 4.59528C4.89382 4.64997 4.93721 4.71491 4.96682 4.78637C4.99642 4.85783 5.01166 4.93443 5.01166 5.01179C5.01166 5.08914 4.99642 5.16574 4.96682 5.2372C4.93721 5.30867 4.89382 5.3736 4.83912 5.42829C4.78441 5.48299 4.71947 5.52637 4.64801 5.55596C4.57654 5.58556 4.49994 5.60078 4.42258 5.60077H3.8336C3.67739 5.60077 3.52758 5.53872 3.41712 5.42826ZM10.9014 12.0796C10.9014 12.3139 10.9945 12.5386 11.1602 12.7043C11.3259 12.87 11.5506 12.9631 11.7849 12.9631C12.0192 12.9631 12.2439 12.87 12.4096 12.7043C12.5753 12.5386 12.6684 12.3139 12.6684 12.0796C12.6684 11.8453 12.5753 11.6206 12.4096 11.4549C12.2439 11.2892 12.0192 11.1961 11.7849 11.1961C11.5506 11.1961 11.3259 11.2892 11.1602 11.4549C10.9945 11.6206 10.9014 11.8453 10.9014 12.0796ZM10.1151 9.13468H13.4547L15.1109 12.0796L13.4547 15.0245H10.1151L8.4589 12.0796L10.1151 9.13468ZM13.7592 12.0796L12.7656 10.3127H10.8036L9.81003 12.0796L10.8042 13.8466H12.765L13.7592 12.0796Z" fill=""/>
</g>
<defs>
<clipPath id="clip0_121_7579">
<rect width="16" height="16" fill=""/>
</clipPath>
</defs>
</svg>
