<svg width="16" height="17" viewBox="0 0 16 17" fill="" xmlns="http://www.w3.org/2000/svg">
<path fill-rule="evenodd" clip-rule="evenodd" d="M1.77783 15.1667V2.27783H14.6667V15.1667H1.77783ZM2.85191 14.0926H13.5926V3.35191H2.85191V14.0926ZM7.54831 4.66227L8.30821 5.42218L5.85932 7.87107L4.08442 6.09616L4.84164 5.33625L5.85932 6.35125L7.54831 4.66227ZM10.4617 10.7711L11.2565 9.97357L12.0165 10.7335L11.2216 11.5283L12.0675 12.3768L11.3076 13.1367L10.4617 12.2882L9.5971 13.1528L8.83988 12.3929L9.70182 11.5283L8.88821 10.7174L9.64812 9.95746L10.4617 10.7711ZM11.0662 5.12036L4.62172 11.5645L5.38109 12.3242L11.8255 5.88L11.0662 5.12036Z" fill=""/>
</svg>
