<svg width="18" height="18" viewBox="0 0 18 18" fill="" xmlns="http://www.w3.org/2000/svg">
<path d="M10.211 12.9158C10.211 12.6869 10.1479 12.4895 10.0453 12.2922L12.2783 9.98689C12.4755 10.1211 12.7044 10.1843 12.9332 10.1843C13.5881 10.1843 14.1483 9.62373 14.1483 8.96847C14.1483 8.31321 13.5881 7.75268 12.9332 7.75268C12.7044 7.75268 12.5071 7.81584 12.3098 7.91847L10.0374 5.64479C10.14 5.44742 10.2347 5.25005 10.2347 5.0211C10.2347 4.36584 9.67443 3.80531 9.01953 3.80531C8.36463 3.80531 7.8123 4.32636 7.8123 5.0211C7.8123 5.25005 7.87542 5.44742 7.978 5.64479L5.74501 7.98163C5.54775 7.84742 5.31893 7.78426 5.12167 7.78426C4.46676 7.78426 3.90654 8.34479 3.90654 9.00005C3.90654 9.65531 4.46676 10.2158 5.12167 10.2158C5.31893 10.2158 5.54775 10.1527 5.71345 10.05L8.01745 12.2843C7.88331 12.4816 7.82019 12.7106 7.82019 12.9395C7.82019 13.5948 8.38041 14.1553 9.03531 14.1553C9.69021 14.1553 10.211 13.5711 10.211 12.9158ZM8.43564 11.8658L6.13164 9.63163C6.19476 9.53689 6.22632 9.43426 6.26578 9.30005H7.87542C8.00956 9.829 8.49876 10.1843 9.02742 10.1843C9.55608 10.1843 10.0453 9.78952 10.1794 9.30005H11.7891C11.8206 9.40268 11.8522 9.49742 11.8916 9.56058L9.6192 11.8658C9.42194 11.7632 9.22468 11.7 8.99586 11.7C8.7986 11.7 8.60134 11.7632 8.43564 11.8658ZM9.02742 6.30005C9.22468 6.30005 9.4535 6.23689 9.6192 6.13426L11.9232 8.40005C11.8601 8.49479 11.8285 8.59742 11.7891 8.70005H10.1794C10.0453 8.1711 9.55608 7.81584 9.02742 7.81584C8.49876 7.81584 8.00956 8.21058 7.87542 8.70005H6.26578C6.23422 8.60531 6.20265 8.50268 6.17109 8.43952L8.44353 6.13426C8.60134 6.20531 8.7986 6.30794 9.02742 6.30005ZM9.6192 9.00005C9.6192 9.33163 9.35882 9.62373 8.99586 9.62373C8.6329 9.62373 8.37252 9.36321 8.37252 9.00005C8.37252 8.63689 8.6329 8.37636 8.99586 8.37636C9.35882 8.37636 9.6192 8.67636 9.6192 9.00005ZM12.9411 8.37636C13.2725 8.37636 13.5644 8.63689 13.5644 9.00005C13.5644 9.36321 13.304 9.62373 12.9411 9.62373C12.6097 9.62373 12.3177 9.36321 12.3177 9.00005C12.3177 8.63689 12.5781 8.37636 12.9411 8.37636ZM9.02742 4.46057C9.35882 4.46057 9.65076 4.7211 9.65076 5.08426C9.65076 5.44742 9.35093 5.67636 9.02742 5.67636C8.69602 5.67636 8.40408 5.41584 8.40408 5.05268C8.40408 4.68952 8.66446 4.46057 9.02742 4.46057ZM4.49043 9.00005C4.49043 8.66847 4.75082 8.37636 5.11378 8.37636C5.47674 8.37636 5.73712 8.63689 5.73712 9.00005C5.73712 9.36321 5.47674 9.62373 5.11378 9.62373C4.75082 9.62373 4.49043 9.33163 4.49043 9.00005ZM9.02742 13.5395C8.69602 13.5395 8.40408 13.279 8.40408 12.9158C8.40408 12.5843 8.66446 12.2922 9.02742 12.2922C9.39038 12.2922 9.6192 12.5922 9.6192 12.9158C9.6192 13.2395 9.32726 13.5395 9.02742 13.5395ZM9.91904 14.9527L9.16156 15.5764L9.91904 16.2C13.2093 15.7737 15.7737 13.2079 16.1998 9.91584H14.9847C14.5823 12.4895 12.515 14.5579 9.91904 14.9527ZM8.11213 3.04742L8.86961 2.42373L8.11213 1.80005C4.82183 2.19479 2.25745 4.79215 1.83137 8.04479H3.04649C3.44101 5.479 5.5083 3.44215 8.11213 3.04742ZM16.1998 8.08426C15.7737 4.83163 13.2093 2.22636 9.91904 1.83163V3.04742C12.515 3.44215 14.5902 5.51058 14.9452 8.08426L15.5686 8.84215L16.1998 8.08426ZM3.04649 9.89215L2.42315 9.13426L1.7998 9.89215C2.19433 13.1843 4.79027 15.75 8.04901 16.1764V14.9606C5.5083 14.5579 3.44101 12.4895 3.04649 9.89215Z" fill=""/>
</svg>
