<svg width="18" height="18" viewBox="0 0 18 18" fill="" xmlns="http://www.w3.org/2000/svg">
<path d="M15.6811 5.92238H11.69C11.258 5.51857 10.7415 5.11477 10.3377 4.70157C10.2156 4.57949 10.0747 4.53254 9.94327 4.55132H1.51031C1.47274 4.55132 1.45396 4.55132 1.4164 4.56071C1.15345 4.5701 0.899902 4.74852 0.899902 5.11477V12.5241C0.899902 12.5805 0.909293 12.6462 0.918684 12.6932C0.946857 12.9373 1.11589 13.1627 1.42579 13.1627H4.16791C4.24304 13.9234 4.88161 14.515 5.65166 14.515C5.84887 14.515 6.03668 14.4774 6.21511 14.4023C6.85368 14.9282 7.6613 15.2193 8.48769 15.2193C9.31408 15.2193 10.1123 14.9282 10.7603 14.4023C10.9387 14.4774 11.1265 14.515 11.3237 14.515C12.0938 14.515 12.7323 13.9328 12.8075 13.1627H15.5496C15.8501 13.219 16.1976 13.0406 16.1976 12.618V6.47644C16.1976 6.11019 15.944 5.92238 15.6811 5.92238ZM5.66105 12.3833C6.0179 12.3833 6.29963 12.665 6.29963 13.0218C6.29963 13.3787 6.0179 13.6604 5.66105 13.6604C5.3042 13.6604 5.02247 13.3787 5.02247 13.0218C5.02247 12.665 5.3042 12.3833 5.66105 12.3833ZM11.3331 12.3833C11.69 12.3833 11.9717 12.665 11.9717 13.0218C11.9717 13.3787 11.69 13.6604 11.3331 13.6604C10.9763 13.6604 10.6945 13.3787 10.6945 13.0218C10.6945 12.665 10.9763 12.3833 11.3331 12.3833ZM7.21993 9.16221C7.48287 9.62236 7.97119 9.90409 8.50647 9.90409C9.03236 9.90409 9.52068 9.62236 9.79301 9.16221C10.6851 9.62236 11.258 10.5333 11.2768 11.5381C10.4879 11.5757 9.85875 12.233 9.85875 13.0218C9.85875 13.313 9.95266 13.5947 10.1217 13.8482C9.65215 14.1863 9.0887 14.3647 8.51586 14.3647C7.94302 14.3647 7.37957 14.1769 6.91003 13.8482C7.07906 13.5947 7.17297 13.313 7.17297 13.0218C7.17297 12.2236 6.55318 11.5757 5.75496 11.5381C5.75496 10.5333 6.3278 9.61297 7.21993 9.16221ZM7.8585 8.41095C7.8585 8.05409 8.14023 7.77237 8.49708 7.77237C8.85393 7.77237 9.13566 8.05409 9.13566 8.41095C9.13566 8.7678 8.85393 9.04952 8.49708 9.04952C8.14023 9.04952 7.8585 8.77719 7.8585 8.41095ZM12.507 12.1109C12.3943 11.9701 12.2628 11.848 12.1125 11.7541C12.1125 11.7071 12.1219 11.6602 12.1219 11.6038C12.1219 10.1764 11.2862 8.88988 9.98083 8.30765C9.93388 7.52821 9.28591 6.9272 8.50647 6.9272C7.72703 6.9272 7.08846 7.52821 7.03211 8.30765C5.7174 8.88049 4.88161 10.1764 4.88161 11.6038V11.7635C4.73136 11.8574 4.60928 11.9701 4.49659 12.1109C4.46842 12.1015 4.43085 12.1015 4.40268 12.1015H1.97046V5.5937H9.75545C10.1686 5.97872 10.9575 6.66425 11.1735 6.86146C11.2392 6.9272 11.3143 6.97415 11.427 6.97415H15.1458V12.1015H12.6197C12.5727 12.1015 12.5351 12.1015 12.507 12.1109ZM1.51031 3.76249C0.805994 3.76249 0.805994 2.70132 1.51031 2.70132H10.7884C10.9199 2.69193 11.0608 2.7295 11.1829 2.85158L12.5445 4.21325H15.8125C16.329 4.21325 16.329 5.27441 15.8125 5.27441H12.2628C12.1313 5.27441 12.0374 5.20867 11.9717 5.10538C11.9247 5.0772 11.8778 5.04903 11.8402 5.00208L10.5912 3.7531L1.51031 3.76249Z" fill=""/>
</svg>
