<svg width="16" height="17" viewBox="0 0 16 17" fill="" xmlns="http://www.w3.org/2000/svg">
<path fill-rule="evenodd" clip-rule="evenodd" d="M2.40492 1.83325H13.5954C13.8796 1.83325 14.1521 1.94613 14.353 2.14707C14.5539 2.348 14.6668 2.62052 14.6668 2.90468V14.0952C14.6668 14.3793 14.5539 14.6518 14.353 14.8528C14.1521 15.0537 13.8796 15.1666 13.5954 15.1666H2.40492C2.12076 15.1666 1.84824 15.0537 1.64731 14.8528C1.44638 14.6518 1.3335 14.3793 1.3335 14.0952V2.90468C1.3335 2.62052 1.44638 2.348 1.64731 2.14707C1.84824 1.94613 2.12076 1.83325 2.40492 1.83325ZM13.5954 2.90468H2.40492V5.43221H13.5954V2.90468ZM2.40492 14.0952H13.5954V6.50364H2.40492V14.0952ZM4.54778 3.78191H3.71445V4.61524H4.54778V3.78191ZM5.98022 3.78191H5.14689V4.61524H5.98022V3.78191ZM7.40106 3.78191H6.56772V4.61524H7.40106V3.78191ZM9.58794 9.30661L11.103 10.8218L9.58779 12.3371L10.1769 12.9264L11.6923 11.4111H11.6924L12.2815 10.8218L10.1771 8.71732L9.58794 9.30661ZM6.3988 9.30661L5.80966 8.71732L3.7052 10.8218L4.29434 11.4111H4.29449L5.80981 12.9264L6.39895 12.3371L4.88377 10.8218L6.3988 9.30661ZM8.30459 7.60458L6.84105 13.0667L7.64598 13.2823L9.10955 7.82027L8.30459 7.60458Z" fill=""/>
</svg>
