<svg width="15" height="15" viewBox="0 0 15 15" fill="#fff" xmlns="http://www.w3.org/2000/svg">
<path d="M12.2529 2.68422L11.7559 2.50922C11.6999 2.18722 11.4059 1.92822 11.0559 1.92822C10.6499 1.92822 10.3279 2.25022 10.3279 2.65622C10.3279 3.06222 10.6499 3.38422 11.0559 3.38422C11.2589 3.38422 11.4059 3.30022 11.5529 3.18122L11.9589 3.35622C12.2809 3.47522 12.4839 3.88122 12.4839 4.25922V10.7342C12.4839 11.1122 12.2809 11.5182 11.9589 11.6372L11.5809 11.7842C11.4339 11.6372 11.2589 11.5532 11.0559 11.5532C10.6499 11.5532 10.3279 11.8752 10.3279 12.2812C10.3279 12.6872 10.6499 13.0092 11.0559 13.0092C11.3779 13.0092 11.6369 12.8062 11.7559 12.5122L12.2809 12.3372C12.8969 12.1342 13.3589 11.4342 13.3589 10.7622V4.26622C13.3309 3.59422 12.8689 2.89422 12.2529 2.68422ZM4.49689 11.5532C4.26589 11.5532 4.06289 11.6722 3.91589 11.8472L3.39089 11.6722C3.09689 11.5252 2.83789 11.1472 2.83789 10.8252V4.20322C2.83789 3.88122 3.10389 3.50322 3.39089 3.38422L3.97189 3.18122C4.11889 3.32822 4.29389 3.41222 4.49689 3.41222C4.90289 3.41222 5.22489 3.09022 5.22489 2.68422C5.22489 2.27822 4.90289 1.95622 4.49689 1.95622C4.17489 1.95622 3.88089 2.15922 3.79689 2.45322L3.06889 2.68422C2.48789 2.88722 1.96289 3.55922 1.96289 4.20322V10.8532C1.96289 11.4972 2.48789 12.1342 3.10389 12.3722L3.80389 12.6032C3.92289 12.8692 4.18189 13.0372 4.47589 13.0372C4.88189 13.0372 5.20389 12.7152 5.20389 12.3092C5.22489 11.8752 4.90289 11.5532 4.49689 11.5532ZM6.21889 6.24722C6.21889 6.56922 6.47789 6.82822 6.79989 6.82822C7.12189 6.82822 7.38089 6.56922 7.38089 6.24722C7.38089 5.92522 7.12189 5.66622 6.79989 5.66622C6.47789 5.65922 6.21889 5.92522 6.21889 6.24722Z" fill="#fff"/>
<path d="M9.65599 6.56885L10.762 7.64685L10.79 9.16585L5.36499 9.13785V8.23485L6.61799 7.33185L7.84299 8.15085L9.65599 6.56885Z" fill="#fff"/>
<path d="M9.0751 10.7342H5.1061C4.4341 10.7342 3.8811 10.1812 3.8811 9.50917V6.30317C3.8811 5.98117 4.1471 5.72217 4.4621 5.72217H4.5811V9.48817C4.5811 9.78217 4.8121 9.98517 5.0781 9.98517H9.6281V10.1322C9.6561 10.4752 9.3971 10.7342 9.0751 10.7342Z" fill="#fff"/>
<path d="M10.7061 9.74693H5.31609C5.02209 9.74693 4.81909 9.51593 4.81909 9.24993V5.02193C4.81909 4.67193 5.11309 4.37793 5.46309 4.37793H10.7131C11.0631 4.37793 11.3571 4.67193 11.3571 5.02193V9.10293C11.3781 9.45293 11.0561 9.74693 10.7061 9.74693ZM5.54709 9.01893H10.6501V5.22493C10.6501 5.14093 10.5941 5.07793 10.5031 5.07793H5.69409C5.61009 5.07793 5.54709 5.13393 5.54709 5.22493V9.01893Z" fill="#fff"/>
</svg>
