<svg width="15" height="15" viewBox="0 0 15 15" fill="#fff" xmlns="http://www.w3.org/2000/svg">
<path d="M7.2971 9.10277C6.9751 9.10277 6.6531 9.07477 6.3311 9.01177C6.0651 8.95577 5.8341 8.86477 5.6311 8.71777V9.09577C5.6311 9.17977 5.7151 9.27077 5.8621 9.38977C6.0651 9.50877 6.2681 9.56477 6.4781 9.59277C6.7721 9.64877 7.0311 9.67677 7.3251 9.64877C7.6191 9.64877 7.8781 9.62077 8.1721 9.59277C8.3751 9.56477 8.5781 9.47377 8.7881 9.38977C8.9631 9.29877 9.0191 9.21477 9.0191 9.09577V8.71777C8.8161 8.86477 8.5851 8.94877 8.3191 9.01177C7.9341 9.07477 7.6471 9.10277 7.2971 9.10277Z" fill="#fff"/>
<path d="M7.2971 8.22777C6.9751 8.22777 6.6531 8.19977 6.3311 8.13677C6.0651 8.08077 5.8341 7.98977 5.6311 7.84277V8.22077C5.6311 8.30477 5.7151 8.39577 5.8621 8.51477C6.0651 8.63377 6.2681 8.68977 6.4781 8.71777C6.7721 8.77377 7.0311 8.80877 7.3251 8.77377C7.6191 8.77377 7.8781 8.74577 8.1721 8.71777C8.3751 8.68977 8.5781 8.59877 8.7881 8.51477C8.9631 8.42377 9.0191 8.33977 9.0191 8.22077V7.84977C8.8161 7.99677 8.5851 8.08077 8.3191 8.14377C7.9341 8.19977 7.6471 8.22777 7.2971 8.22777Z" fill="#fff"/>
<path d="M7.2971 7.3531C6.9751 7.3531 6.6531 7.3251 6.3311 7.2691C6.0651 7.2131 5.8341 7.1221 5.6311 6.9751V7.3531C5.6311 7.4371 5.7151 7.5281 5.8621 7.6471C6.0651 7.7661 6.2681 7.8221 6.4781 7.8501C6.7721 7.9061 7.0311 7.9411 7.3251 7.9061C7.6191 7.9061 7.8781 7.8781 8.1721 7.8501C8.3751 7.8221 8.5781 7.7311 8.7881 7.6471C8.9631 7.5631 9.0191 7.4721 9.0191 7.3531V6.9751C8.8161 7.1221 8.5851 7.2061 8.3191 7.2691C7.9341 7.3251 7.6471 7.3531 7.2971 7.3531Z" fill="#fff"/>
<path d="M7.35305 5.2809C6.45005 5.2809 5.72205 5.5469 5.65905 5.9249V6.5059C5.65905 6.5899 5.74305 6.6809 5.89005 6.7999C6.09305 6.9189 6.29605 6.9749 6.50605 7.0029C6.80005 7.0589 7.05905 7.0869 7.35305 7.0589C7.64705 7.0589 7.90605 7.0309 8.20005 7.0029C8.40305 6.9749 8.60605 6.8839 8.81605 6.7999C8.99105 6.7159 9.04705 6.6249 9.04705 6.5059V5.9249C8.95605 5.5469 8.22805 5.2809 7.35305 5.2809ZM2.77505 2.7189H4.75605V1.8999H1.95605V4.7279H2.77505V2.7189ZM10.2161 1.8999V2.7189H12.2321V4.7279H13.0511V1.8999H10.2161ZM2.77505 10.2719H1.95605V13.0999H4.75605V12.2529H2.77505V10.2719ZM12.2251 12.2529H10.2091V13.0999H13.0371V10.2719H12.2181V12.2529H12.2251Z" fill="#fff"/>
<path d="M10.8809 11.4968C10.9719 11.5878 11.0559 11.6158 11.2029 11.6158C11.4339 11.6158 11.6369 11.4128 11.6369 11.1818C11.6369 11.0628 11.6089 10.9788 11.5179 10.8878L10.5869 9.92179C11.1119 9.22179 11.4059 8.34679 11.4059 7.44379C11.4059 5.19679 9.5649 3.36279 7.3249 3.36279C5.0849 3.36279 3.2439 5.19679 3.2439 7.44379C3.2439 9.69079 5.0849 11.5248 7.3249 11.5248C8.3189 11.5248 9.2499 11.1748 10.0059 10.5308L10.8809 11.4968ZM7.2969 10.6778C5.4909 10.6778 4.0909 9.27779 4.0909 7.47179C4.0909 5.66579 5.4909 4.26579 7.2969 4.26579C9.1029 4.26579 10.5029 5.66579 10.5029 7.47179C10.5029 9.24979 9.0749 10.6778 7.2969 10.6778Z" fill="#fff"/>
</svg>
