<svg width="15" height="15" viewBox="0 0 15 15" fill="#fff" xmlns="http://www.w3.org/2000/svg">
<path d="M11.8751 8.95605H13.0441V13.0371H8.96305V11.8681H11.8821V8.95605H11.8751ZM11.8751 6.04405V3.12505H8.95605V1.95605H13.0371V6.03706L11.8751 6.04405ZM3.12505 6.04405H1.95605V1.95605H6.03706V3.12505H3.12505V6.04405ZM3.12505 8.95605V11.8751H6.04405V13.0441H1.95605V8.96305H3.12505V8.95605ZM5.29505 9.54406L4.29405 10.7131V4.87505H10.7131V9.54406H5.29505ZM5.16905 8.66906H9.83805V5.75005H5.16905V8.66906ZM6.33106 7.50005C6.17005 7.50005 6.03706 7.36705 6.03706 7.20606C6.03706 7.04505 6.17005 6.91206 6.33106 6.91206C6.49205 6.91206 6.62505 7.04505 6.62505 7.20606C6.62505 7.36705 6.49205 7.50005 6.33106 7.50005ZM7.50005 7.50005C7.33906 7.50005 7.20606 7.36705 7.20606 7.20606C7.20606 7.04505 7.33906 6.91206 7.50005 6.91206C7.66106 6.91206 7.79406 7.04505 7.79406 7.20606C7.79406 7.36705 7.66106 7.50005 7.50005 7.50005ZM8.66906 7.50005C8.50806 7.50005 8.37506 7.36705 8.37506 7.20606C8.37506 7.04505 8.50806 6.91206 8.66906 6.91206C8.83006 6.91206 8.96305 7.04505 8.96305 7.20606C8.95605 7.36705 8.83006 7.50005 8.66906 7.50005Z" fill="#fff"/>
</svg>
