<svg width="16" height="16" viewBox="0 0 16 16" fill="#fff" xmlns="http://www.w3.org/2000/svg">
<path fill-rule="evenodd" clip-rule="evenodd" d="M1.77783 14.6667V1.77783H14.6667V14.6667H1.77783ZM2.85191 13.5926H13.5926V2.85191H2.85191V13.5926ZM7.54831 4.16227L8.30821 4.92218L5.85932 7.37107L4.08442 5.59616L4.84164 4.83625L5.85932 5.85125L7.54831 4.16227ZM10.4617 10.2711L11.2565 9.47357L12.0165 10.2335L11.2216 11.0283L12.0675 11.8768L11.3076 12.6367L10.4617 11.7882L9.5971 12.6528L8.83988 11.8929L9.70182 11.0283L8.88821 10.2174L9.64812 9.45746L10.4617 10.2711ZM11.0662 4.62036L4.62172 11.0645L5.38109 11.8242L11.8255 5.38L11.0662 4.62036Z" fill="#fff"/>
</svg>
