<svg width="16" height="16" viewBox="0 0 16 16" fill="#fff" xmlns="http://www.w3.org/2000/svg">
<path fill-rule="evenodd" clip-rule="evenodd" d="M2.40492 1.3335H13.5954C13.8796 1.3335 14.1521 1.44638 14.353 1.64731C14.5539 1.84824 14.6668 2.12076 14.6668 2.40492V13.5954C14.6668 13.8796 14.5539 14.1521 14.353 14.353C14.1521 14.5539 13.8796 14.6668 13.5954 14.6668H2.40492C2.12076 14.6668 1.84824 14.5539 1.64731 14.353C1.44638 14.1521 1.3335 13.8796 1.3335 13.5954V2.40492C1.3335 2.12076 1.44638 1.84824 1.64731 1.64731C1.84824 1.44638 2.12076 1.3335 2.40492 1.3335ZM13.5954 2.40492H2.40492V4.93245H13.5954V2.40492ZM2.40492 13.5954H13.5954V6.00388H2.40492V13.5954ZM4.54778 3.28215H3.71445V4.11548H4.54778V3.28215ZM5.98022 3.28215H5.14689V4.11548H5.98022V3.28215ZM7.40106 3.28215H6.56772V4.11548H7.40106V3.28215ZM9.58794 8.80685L11.103 10.322L9.58779 11.8374L10.1769 12.4266L11.6923 10.9113H11.6924L12.2815 10.322L10.1771 8.21756L9.58794 8.80685ZM6.3988 8.80685L5.80966 8.21756L3.7052 10.322L4.29434 10.9113H4.29449L5.80981 12.4266L6.39895 11.8374L4.88377 10.322L6.3988 8.80685ZM8.30459 7.10483L6.84105 12.5669L7.64598 12.7826L9.10955 7.32051L8.30459 7.10483Z" fill="#fff"/>
</svg>
