<svg width="15" height="15" viewBox="0 0 15 15" fill="#fff" xmlns="http://www.w3.org/2000/svg">
<path d="M10.0059 6.10018C9.80292 6.10018 9.59992 6.27518 9.59992 6.50618V7.03118C9.57192 7.26218 9.39692 7.43718 9.16592 7.43718C8.93492 7.43718 8.69692 7.26218 8.69692 7.00318V5.42818C8.69692 5.22518 8.52192 5.02218 8.29092 5.02218C8.08792 5.02218 7.88492 5.19718 7.88492 5.42818V6.42218C7.88492 6.65318 7.68192 6.89118 7.41592 6.89118C7.18492 6.89118 6.98192 6.71618 6.94692 6.45718V5.16918C6.94692 4.96618 6.77192 4.76318 6.54092 4.76318C6.33792 4.76318 6.13492 4.93818 6.13492 5.16918V6.97518C6.13492 7.20618 5.93192 7.44418 5.66592 7.44418C5.43492 7.44418 5.23192 7.26918 5.23192 6.97518V6.50618C5.23192 6.30318 5.05692 6.10018 4.82592 6.10018C4.59492 6.10018 4.41992 6.27518 4.41992 6.50618V8.52218C4.41992 8.72518 4.59492 8.92818 4.82592 8.92818C5.05692 8.92818 5.23192 8.75318 5.23192 8.52218V8.31918C5.23192 8.08818 5.43492 7.85018 5.70092 7.85018C5.93192 7.85018 6.16992 8.05318 6.16992 8.31918V9.07518C6.16992 9.27818 6.34492 9.48118 6.57592 9.48118C6.80692 9.48118 6.98192 9.30618 6.98192 9.07518V7.75918C6.98192 7.52818 7.18492 7.32518 7.45092 7.32518C7.68192 7.32518 7.91992 7.52818 7.91992 7.79418V9.36918C7.91992 9.57218 8.09492 9.77518 8.32592 9.77518C8.52892 9.77518 8.73192 9.60018 8.73192 9.36918V8.34718C8.73192 8.11618 8.90692 7.91318 9.20092 7.91318C9.43192 7.91318 9.64192 8.08818 9.64192 8.31918V8.52218C9.64192 8.72518 9.81692 8.92818 10.0479 8.92818C10.2509 8.92818 10.4539 8.75318 10.4539 8.52218V6.50618C10.3839 6.27518 10.2159 6.10018 10.0059 6.10018ZM3.97192 6.91918C3.76892 6.91918 3.56592 7.09418 3.56592 7.32518V7.73118C3.56592 7.93418 3.74092 8.13718 3.97192 8.13718C4.17492 8.13718 4.37792 7.96218 4.37792 7.73118V7.32518C4.32192 7.09418 4.14692 6.91918 3.97192 6.91918ZM11.0279 6.91918C10.8249 6.91918 10.6219 7.09418 10.6219 7.32518V7.73118C10.6219 7.93418 10.7969 8.13718 11.0279 8.13718C11.2589 8.13718 11.4339 7.96218 11.4339 7.73118V7.32518C11.4339 7.09418 11.2659 6.91918 11.0279 6.91918Z" fill="#fff"/>
<path d="M12.6941 9.22223V5.66623C13.0721 5.49123 13.3101 5.11323 13.3101 4.70723C13.3101 4.12623 12.8411 3.65723 12.2601 3.65723C12.0571 3.65723 11.8261 3.71323 11.6441 3.86023L8.55011 2.11023V2.08223C8.55011 1.50123 8.08111 1.03223 7.50011 1.03223C6.91911 1.03223 6.45011 1.50123 6.45011 2.08223V2.11023L3.35611 3.91623C3.15311 3.76923 2.95011 3.71323 2.71211 3.71323C2.13111 3.68523 1.66211 4.14723 1.66211 4.73523C1.66211 5.17623 1.92111 5.55423 2.33411 5.72923V9.25023C1.92811 9.36923 1.66211 9.74723 1.66211 10.1532C1.66211 10.7342 2.13111 11.2032 2.71211 11.2032C2.91511 11.2032 3.15311 11.1472 3.32811 11.0282L6.47811 12.8342C6.47811 13.4152 6.94711 13.8842 7.52811 13.8842C8.10911 13.8842 8.57811 13.4152 8.57811 12.8342L11.7001 11.0282C11.8751 11.1472 12.0781 11.2032 12.2811 11.2032C12.8621 11.2032 13.3311 10.7342 13.3311 10.1532C13.3031 9.77523 13.0721 9.39723 12.6941 9.22223ZM12.0221 9.15923C11.9031 9.18723 11.7911 9.25023 11.6721 9.30623L10.8881 8.87223C10.8601 8.87223 10.8041 8.84423 10.7691 8.84423C10.5941 8.84423 10.4191 8.99123 10.4191 9.19423C10.4191 9.31323 10.4751 9.39723 10.5661 9.46023L11.2661 9.86623C11.2381 9.98523 11.2101 10.0692 11.2101 10.2162C11.2101 10.3632 11.2381 10.4192 11.2661 10.5662L8.31911 12.2602C8.20011 12.1132 8.05311 11.9942 7.82211 11.8822V11.0002C7.79411 10.8252 7.67511 10.6782 7.47211 10.6782C7.26911 10.6782 7.15011 10.7972 7.12211 11.0002V11.8472C6.91911 11.9032 6.71611 12.0222 6.59711 12.2252L3.62211 10.5032C3.65011 10.3842 3.67811 10.3002 3.67811 10.1812C3.67811 10.0972 3.67811 10.0342 3.65011 9.97823L4.35011 9.54423L4.37811 9.51623C4.46211 9.46023 4.52511 9.36923 4.52511 9.25023C4.52511 9.07523 4.37811 8.90023 4.17511 8.90023C4.11911 8.90023 4.05611 8.92823 4.00011 8.95623L3.30011 9.39023C3.18111 9.29923 3.06911 9.24323 2.89411 9.18723V5.72223C3.04111 5.66623 3.16011 5.60323 3.27211 5.51923L4.00011 5.92523C4.02811 5.95323 4.08411 5.95323 4.11911 5.95323C4.29411 5.95323 4.46911 5.80623 4.46911 5.60323C4.46911 5.51923 4.41311 5.42823 4.35011 5.33723L3.70611 4.93123C3.73411 4.87523 3.73411 4.78423 3.73411 4.72823C3.73411 4.64423 3.73411 4.55323 3.70611 4.46223L6.68111 2.74023C6.80011 2.88723 7.00311 2.99923 7.17811 3.09023V3.96523C7.17811 4.14023 7.32511 4.31523 7.52811 4.31523C7.73111 4.31523 7.87811 4.16823 7.87811 3.96523V3.09723C8.05311 3.04123 8.22811 2.92223 8.34711 2.74723L11.2941 4.44123C11.2661 4.56023 11.2661 4.64423 11.2661 4.70723V4.85423L10.5661 5.29523C10.4821 5.35123 10.4191 5.44223 10.4191 5.56123C10.4191 5.73623 10.5661 5.91123 10.7691 5.91123C10.8251 5.91123 10.8601 5.91123 10.9161 5.88323L11.5881 5.47723C11.7071 5.59623 11.9101 5.68023 12.0851 5.74323V9.18723H12.0221V9.15923Z" fill="#fff"/>
</svg>
