<svg width="15" height="15" viewBox="0 0 15 15" fill="#fff" xmlns="http://www.w3.org/2000/svg">
<path d="M12.408 8.16033L12.4529 8.1615C12.6745 8.1739 12.8841 8.26637 13.0426 8.42171C13.2012 8.57705 13.2979 8.7847 13.3149 9.00602C13.3318 9.22735 13.2678 9.44729 13.1347 9.62495C13.0016 9.80261 12.8086 9.9259 12.5914 9.97187L10.8919 12.9171H5.57246L6.208 11.8251H10.2732L11.6114 9.50987C11.5373 9.37714 11.4979 9.22788 11.4968 9.07587C11.4975 8.83279 11.5945 8.5999 11.7666 8.42823C11.9387 8.25656 12.1719 8.16012 12.415 8.16004L12.408 8.16033ZM9.74417 2.25L9.11125 3.342H5.37675L2.92966 7.58342L5.20029 11.5171L4.56737 12.6091L1.66675 7.58371L4.74675 2.25H9.74417ZM7.81216 4.78371C9.10862 4.78371 10.1251 5.29908 10.1612 5.83663L10.1671 5.74125V8.98342C10.1671 9.54342 9.13079 9.96896 7.81508 9.96896C6.49908 9.96896 5.466 9.54313 5.466 8.98342V5.83079C5.50508 5.29325 6.516 4.78371 7.81216 4.78371ZM9.50879 8.19388C8.99113 8.48113 8.40347 8.61792 7.81216 8.58879C7.22096 8.61796 6.63325 8.48088 6.11554 8.19388V8.79588C6.11554 9.10096 6.796 9.4005 7.81216 9.4005C8.82571 9.4005 9.50879 9.10096 9.50879 8.79588V8.19388ZM9.52279 6.74371C9.00119 7.03414 8.40838 7.17191 7.81216 7.14125C7.21776 7.17131 6.62689 7.03355 6.10708 6.74371V7.40142C6.10708 7.70679 6.79308 8.00925 7.81216 8.00925C8.83125 8.00925 9.51725 7.70679 9.51725 7.40142V7.35679L9.52279 6.74371ZM10.917 2.264L12.6165 5.22908C12.7857 5.26714 12.9406 5.35229 13.0634 5.47471C13.1862 5.59712 13.2718 5.75179 13.3104 5.92083C13.3489 6.08986 13.3389 6.26637 13.2813 6.42992C13.2238 6.59348 13.1211 6.73741 12.9852 6.84508C12.8493 6.95274 12.6857 7.01974 12.5133 7.03832C12.341 7.0569 12.1668 7.0263 12.0111 6.95007C11.8554 6.87385 11.7244 6.7551 11.6333 6.60755C11.5423 6.46001 11.4948 6.28971 11.4965 6.11633C11.4969 5.95784 11.5395 5.80231 11.6199 5.66571L10.287 3.35571L10.917 2.264ZM7.81216 5.32125C6.81554 5.32125 6.14091 5.61263 6.11554 5.90925C6.13246 6.21725 6.81554 6.49725 7.81216 6.49725C8.80908 6.49725 9.48342 6.20879 9.50879 5.90925C9.49217 5.60125 8.80879 5.32125 7.81216 5.32125Z" fill="#fff"/>
</svg>
